<?xml version="1.0" encoding="utf-8"?>
<!-- Generator: Adobe Illustrator 16.0.3, SVG Export Plug-In . SVG Version: 6.00 Build 0)  -->
<!DOCTYPE svg PUBLIC "-//W3C//DTD SVG 1.1//EN" "http://www.w3.org/Graphics/SVG/1.1/DTD/svg11.dtd">
<svg version="1.1" id="PILLS" xmlns="http://www.w3.org/2000/svg" xmlns:xlink="http://www.w3.org/1999/xlink" x="0px" y="0px"
	 width="200px" height="136px" viewBox="0 0 200 136" enable-background="new 0 0 200 136" xml:space="preserve">
<path fill="#C9243F" d="M200,128c0,4.418-3.582,8-8,8H8c-4.418,0-8-3.582-8-8V8c0-4.418,3.582-8,8-8h184c4.418,0,8,3.582,8,8V128z"
	/>
<g>
	<path fill="none" d="M9.424,72.068C9.832,66.873,3.409,59.776,0,56.615v23.74c2.896-1.989,5.194-3.141,5.944-3.498
		C8.862,75.061,9.331,73.27,9.424,72.068z"/>
	<path fill="none" d="M7.581,46.713c-1.332,0.269-3.042,0.007-3.911-0.817c-1.078-1.024-1.409-2.606-0.832-3.974
		c5.715-13.625,21.72-24.265,22.402-24.711c42.297-27.748,73.678-14.786,98.894-4.376c5.183,2.144,10.078,4.166,14.837,5.761
		c26.807,8.99,45.273,2.073,54.934-3.897c1.225-4.324,2.287-8.652,3.134-12.91C195.662,0.671,193.91,0,192,0H8C3.582,0,0,3.582,0,8
		v41.576c0.031-0.011,0.06-0.027,0.092-0.038C0.092,49.539,5.385,47.514,7.581,46.713z"/>
	<path fill="none" d="M86.282,128.118c-6.679-2.544-26.954-11.759-28.711-12.556c-8.71-3.386-16.192-5.955-26.249-5.771
		c-13.889,0.256-25.935,10.704-30.537,21.848C2.072,134.333,4.814,136,8,136h124.792c0.099,0,0.198-0.102,0.297-0.254
		C121.648,136.523,105.686,135.509,86.282,128.118z"/>
	<path fill="none" d="M176.13,113.786c-2.756,3.858-5.687,6.639-8.012,8.705c-2.794,4.748-5.563,9.509-8.211,13.509H192
		c4.418,0,8-3.182,8-7.602V68.366C196.636,77.904,189.4,95.208,176.13,113.786z"/>
	<path fill="#FFFFFF" d="M176.13,113.786C189.4,95.207,196.635,77.904,200,68.366V54.264c-0.074,0.226-0.116,0.35-0.116,0.35
		c-1.428,1.789-3.352,3.352-3.352,3.352l2.415,1.875c0,0-6.322,24.699-25.727,51.866c-2.768,3.876-5.725,6.598-7.938,8.518
		c-3.276,5.573-6.523,10.776-9.581,15.776h4.206c2.647-4,5.417-8.761,8.211-13.509C170.443,120.425,173.375,117.646,176.13,113.786z
		"/>
	<path fill="#FFFFFF" d="M87.555,124.775c-6.81-2.596-28.596-12.508-28.596-12.508c-9.654-3.758-17.337-6.242-27.703-6.052
		C18.052,106.464,6.275,115.114,0,125.508v2.893c0,1.232,0.287,2.396,0.785,3.438c4.602-11.144,16.648-21.791,30.537-22.047
		c10.057-0.185,17.538,2.386,26.249,5.771c1.757,0.797,22.032,10.013,28.711,12.557c19.403,7.391,35.366,8.406,46.807,7.628
		c-0.099,0.151-0.198,0.254-0.297,0.254h4.269c1.047-1,2.09-3.037,3.129-4.665C127.473,133.432,109.607,133.18,87.555,124.775z"/>
	<path fill="#FFFFFF" d="M1.228,52.926l16.492-5.527l-3.4-4.538c12.155,1.429,20.23-9.205,20.23-9.205
		c-8.312,0-28.417,9.651-28.417,9.651c5.361-12.78,21.069-23.11,21.069-23.11c49.091-32.203,82.05-7.798,110.633,1.786
		c29.091,9.759,49.122,1.448,59.147-5.07c1.045-3.603,1.986-7.208,2.789-10.778c-0.416-1.737-1.392-3.256-2.734-4.346
		c-0.846,4.258-1.909,8.585-3.133,12.91c-9.661,5.97-28.129,12.888-54.934,3.897c-4.76-1.595-9.654-3.617-14.838-5.761
		C98.918,2.425,67.538-10.537,25.24,17.211C24.558,17.657,8.553,28.297,2.838,41.922c-0.577,1.368-0.246,2.95,0.832,3.974
		c0.869,0.824,2.579,1.086,3.911,0.817c-2.195,0.801-7.489,2.825-7.489,2.825C0.06,49.549,0.031,49.565,0,49.576v7.039
		c3.409,3.161,9.832,10.258,9.424,15.453c-0.093,1.201-0.562,2.992-3.479,4.791C5.194,77.216,2.896,78.366,0,80.355v4.437
		c4.196-3.222,7.663-4.788,7.663-4.788C22.727,70.92,1.228,52.926,1.228,52.926z"/>
	<path d="M161.784,123.145c-1.067,1.168-4.298,3.09-9.479,5.028c-1.619,2.627-3.3,5.827-5.044,7.827h8.44
		c3.058-5,6.305-10.203,9.581-15.777C163.208,122.021,161.784,123.145,161.784,123.145z"/>
	<path d="M140.189,131.335c-1.039,1.628-2.084,3.665-3.131,4.665h5.338c1.308-2,2.679-3.928,4.098-6.098
		C144.561,130.407,142.456,130.961,140.189,131.335z"/>
	<path d="M200,14.797V8c0-0.644-0.084-1.266-0.229-1.865c-0.803,3.569-1.744,7.175-2.789,10.778
		C198.118,16.174,199.123,15.46,200,14.797z"/>
	<path fill="#BBC4CA" d="M146.494,130.002c-1.419,2.17-2.79,3.998-4.098,5.998h4.865c1.743-2,3.424-5.3,5.043-7.927
		C150.582,128.717,148.643,129.439,146.494,130.002z"/>
	<path d="M26.979,94.257c-3.684-5.725-17.42-7.371-20.387-6.114c0,0,4.13-3.959,16.017-5.416c-3.097-0.574-7.093-0.701-11.268,0.099
		c1.783-1.278,2.935-1.987,2.935-1.987c11.31-14.919-4.737-26.306-4.737-26.306c7.237-2.947,13.941-4.286,13.941-4.286
		c-0.804-2.412-3.215-4.561-3.215-4.561c16.174-1.161,21.614-16.681,21.614-16.681c-6.076-3.214-23.793,5.132-23.793,5.132
		c3.219-3.575,10.659-9.063,21.089-14.298c7.202-3.61,14.486-5.798,21.656-6.94c2.835-0.108,6.015,0.051,8.005,1.1
		c-6.551,0.201-13.144,3.225-18.75,5.444c7.007-0.52,11.562-1.817,17.389-1.422c4.378,0.3,7.622,1.164,13.728,3.093
		c-2.887-4.127-7.301-5.071-9.798-5.703c5.272-1.636,8.995-0.823,16.776,2.938c-3.582-3.715-6.679-5.237-9.67-6.331
		c23.359,1.206,43.471,10.945,52.532,14.256c35.992,13.144,62.834-1.012,68.958-4.739v-6.74c-0.877,0.663-1.882,1.377-3.019,2.116
		c-10.024,6.518-30.056,14.829-59.146,5.07c-28.583-9.584-61.542-33.989-110.633-1.786c0,0-15.708,10.331-21.069,23.11
		c0,0,20.105-9.651,28.417-9.651c0,0-8.076,10.633-20.23,9.205l3.4,4.538l-16.493,5.53c0,0,21.499,17.994,6.436,27.079
		c0,0-3.467,1.567-7.663,4.788v8.634c4.09-1.351,10.803-2.81,14.839-1.603C6.29,93.286,1.923,98.691,0,102.064v1.054
		C6.303,95.706,20.283,93.756,26.979,94.257z"/>
	<path d="M31.255,106.217c10.366-0.189,18.049,2.294,27.703,6.051c0,0,21.787,9.914,28.596,12.51
		c22.053,8.402,39.918,8.854,52.635,6.758c2.267-0.373,4.371-0.828,6.305-1.332c2.148-0.562,4.088-1.186,5.812-1.83
		c5.182-1.938,8.411-4.061,9.479-5.229c0,0,1.424-0.922,3.499-2.722c2.214-1.92,5.171-4.84,7.938-8.717
		c19.404-27.167,25.727-51.866,25.727-51.866l-2.415-1.875c0,0,1.923-1.563,3.352-3.352c0,0,0.042-0.124,0.116-0.35V31.637
		c-0.838,1.338-4.773,5.628-20.709,5.329c0,0,11.925,4.746,19.307,2.501c0,0-2.861,18.945-16.755,45.475
		c-14.225,27.174-18.767,30.027-18.767,30.027c-5.329,2.408-10.354,4.348-15.124,5.885c1.978-2.424,3.458-5.071,3.944-7.336
		c-3.229,2.998-7.476,6.92-13.732,10.002c-33.866,7.521-54.73-6.535-83.853-17.51C24.661,94.836,8.117,103.949,0,112.062v13.445
		C6.275,115.114,18.052,106.464,31.255,106.217z"/>
	<path fill="#C9243F" d="M54.312,106.011c29.123,10.974,49.987,25.03,83.853,17.509c6.257-3.08,10.502-7.002,13.733-10.002
		c-0.487,2.266-1.969,4.912-3.945,7.336c4.771-1.537,9.795-3.476,15.124-5.883c0,0,4.542-2.854,18.767-30.029
		c13.893-26.528,16.754-45.474,16.754-45.474c-7.381,2.245-19.306-2.501-19.306-2.501c15.935,0.299,19.872-3.991,20.709-5.329v-10.1
		c-6.124,3.727-32.966,17.883-68.958,4.739c-9.061-3.311-29.173-13.051-52.532-14.256c2.991,1.094,6.088,2.615,9.67,6.331
		c-7.782-3.761-11.504-4.573-16.776-2.938c2.498,0.631,6.911,1.575,9.798,5.703c-6.105-1.93-9.349-2.793-13.728-3.093
		c-5.827-0.396-10.381,0.902-17.389,1.422c5.607-2.219,12.2-5.243,18.75-5.444c-1.99-1.049-5.17-1.208-8.005-1.1
		c-7.17,1.142-14.454,3.33-21.656,6.94c-10.43,5.234-17.87,10.723-21.089,14.298c0,0,17.717-8.346,23.793-5.132
		c0,0-5.44,15.52-21.614,16.681c0,0,2.411,2.149,3.215,4.561c0,0-6.705,1.339-13.941,4.286c0,0,16.046,11.386,4.737,26.306
		c0,0-1.152,0.708-2.935,1.987c4.175-0.8,8.171-0.672,11.268-0.099c-11.886,1.455-16.017,5.416-16.017,5.416
		c2.966-1.256,16.703,0.39,20.387,6.115C20.283,93.756,6.303,95.706,0,103.118v8.942C8.117,103.949,24.661,94.836,54.312,106.011z
		 M153.537,110.714c8.607-11.493,24.646-45.27,24.646-45.27c-2.17,17.113-11.97,30.001-11.97,30.001
		C160.85,106.016,153.537,110.714,153.537,110.714z M44.581,88.245l1.946-2.169l1.059-1.096l0.963-1.543l0.428,0.011l-0.163-0.287
		l2.468-1.722l2.928,0.099l1.314,0.545l0.127,0.938l0.632,1.274l-0.086,0.263l2.038,0.194l2.335-0.067l1.799,0.485l1.61-0.313
		l1.48-1.424l-1.579-2.115l-2.328-2.277l-2.006-3.561l-1.729-2.607L56.49,70.05l-1.286-2.516l2.105-1.372l-2.603-0.269l-1.448-3.814
		L53,59.005l0.124-3.126l0.013-3.139l0.561-3.119l0.976-3.056l0.44-3.134l1.761-2.9l0.807-3.138l2.057-2.717l1.014-1.908l2.43-2.66
		l3.607-2.405l-1.004,3.101l-0.077,2.752l-0.389,3.158l-0.826,1.783l0.112,1.824l0.013,4.516l0.37,2.903l0.711,2.893l1.206,2.774
		l0.912,2.753l1.161,2.705l1.139,2.778l1.231,2.816l1.69,2.427l1.936,2.306l2.134,2.209l2.143,2.257l2.708,1.812l1.799,1.506
		l-0.948-1.353l-0.194-2.666l-0.679-1.015l-0.121-0.822l2.73-8.115c-0.603-0.688-2.522-3.202-2.51-7.386
		c-0.003-0.051,0.016-0.476,0.044-1.123l1.477,0.102l-1.397-1.77c0.16-3.237,0.415-8.126,0.415-8.126s0.921,0.475,1.458,0.667
		c0.268-0.692,0.561-2.061,0.711-2.921c-0.054-0.562-0.213-4.149,3.866-8.114c0.37-0.548,4.577-6.633,10.566-7.262l6.594-2.153
		l0.103,0.019l2.169,0.351c0.262-0.099,0.934-0.351,0.943-0.351c0.38-0.13,9.328-3.068,15.127,2.054
		c0.172,0.127,2.785,2.003,4.369,3.521c2.172,1.582,3.203,2.589,3.248,2.634l0.133,0.134l-0.014,0.186l-0.047,0.804l3.562,3.504
		l0.042,0.042l0.024,0.048c0.084,0.137,1.407,2.481,1.771,5.087l-0.376,1.423l0.359,1.078c-0.041,0.23-0.099,0.46-0.168,0.683
		c-0.039,0.274-0.597,3.913-3.213,7.412l-0.033,0.051l-0.045,0.032c-0.564,0.434-1.285,1.173-1.492,1.719l2.267,0.182
		c0,0-5.364,7.017-5.345,6.991c-1.069,1.636-2.606,3.117-4.153,4.351l-1.489-0.141l-0.033,1.283c-1.869,1.32-3.504,2.204-4,2.461
		c-0.242,0.601-1.142,2.838-1.153,2.865l-2.529,5.077l-2.213,0.988l-1.726,1.772c-0.485,0.178-2.039,1.06-3.562,1.945l1.516-0.484
		l3.364-0.798l5.224-1.25l4.277-1.229l3.098-1.47l3.476-0.791l2.708-1.699l1.964,0.699l-0.01-2.101l4.055-2.328l3.482-3.042
		l2.966-1.92l2.622-2.21l2.338-2.351l2.086-2.558l1.997-2.646l1.301-2.717l2.596-2.029l0.533-1.843l2.09-3.03l0.883,2.733
		l0.232,3.202l-0.455,2.022l-0.125,3.113l-1.496,2.998l-0.507,3.154l-1.805,2.858l-1.292,2.992l-1.689,2.89l-2.173,2.692
		l-2.065,2.729l-2.367,2.539l-3.895,2.725l-0.812,0.471l-1.344,1.041l-3.201,1.748l-3.202,1.748l-3.696,1.799l-5.25,2.852
		l-3.511,0.754l-0.466,0.247l0.328,2.093l1.162,0.877l1.881,0.27l1.955,0.941l1.885,0.607l0.107-0.258l1.428-0.855l0.761-0.752
		l1.509,0.025l2.58,1.027l0.919,2.416l-0.337,0.186l0.373,0.153l-0.25,1.688l0.146,1.339l0.16,2.601l-1.539,3.01l-1.75,0.798
		l-0.246-0.232l-1.983,1.477l-0.999,0.88l-0.271,0.591l-0.672-0.425l0.209,0.409l-3.316,1.505l-3.607,0.224l-3.617,0.547
		l-0.439-0.478l-0.59,0.083l-1.451-0.23l-2.631,0.141l-2.75-1.305l-2.829-1.416l-2.505-2.59l-1.248-2.442l-2.334,0.565l-2.547,0.732
		l-2.638,0.052l-2.555,0.421l-2.494-0.351l-2.577,0.013l-2.367-0.25l-2.421-0.918l-2.312-0.758l-2.37-0.75l-1.945-1.395
		l-2.025-1.308l-1.741-1.626l-1.879-1.512l-0.123-0.122l0.206,0.536l-2.916,1.705l-3.952,1.269l-3.409,0.144l-3.269,0.074
		l-2.156-1.119l-1.41-0.353l-0.447-0.293l-0.711,0.24l-2.718-1.845l-2.937-1.557l-1.802-2.552l0.466-0.269l-0.874,0.108l0.182-0.612
		l-0.246-1.129l-0.669-2.021l-0.376,0.103l-0.948-1.347L44.581,88.245z"/>
	<path fill="#C9243F" d="M14.839,91.823C10.803,90.616,4.09,92.076,0,93.426v8.639C1.923,98.691,6.29,93.286,14.839,91.823z"/>
	<path d="M178.184,65.444c0,0-16.039,33.775-24.646,45.27c0,0,7.312-4.698,12.677-15.269
		C166.214,95.445,176.014,82.559,178.184,65.444z"/>
	<path d="M64.546,93.682c-0.182-0.643-0.15-1.354-0.036-1.99c0.045-0.588,0.154-1.207,0.345-1.861
		c-0.711,0.361-2.545,1.436-2.775,3.046c-0.903-0.606-1.505-1.944-1.505-1.944s-1.212,0.889-1.317,1.707
		c-1.069-0.152-1.506-1.836-1.506-1.836s-1.294,0.696-1.559,1.665c0,0-1.263-0.312-1.509-1.78c0,0-1.289,0.871-1.493,1.768
		c0,0-1.824-1.214-1.665-2.68c-0.38,0.677-0.583,1.283-0.699,1.783c-0.274,1.931-0.102,3.711,1.19,4.367
		c1.043,0.438,4.2,0.331,5.699,0.375c1.687,0.051,4.832,0.969,6.784,2.358c0.446,0.317,1.407-0.802,1.745-1.324
		c0,0-1.295-1.437-1.662-3.795C64.572,93.587,64.559,93.632,64.546,93.682z"/>
	<path d="M119.331,61.831c-0.082,0.014-0.162,0.02-0.243,0.032c0.125-0.018,0.249-0.036,0.374-0.058
		C119.417,61.813,119.374,61.823,119.331,61.831z"/>
	<path d="M115.954,61.945c0.058,0.005,0.112,0.011,0.17,0.015C116.066,61.956,116.012,61.95,115.954,61.945z"/>
	<path d="M114.581,61.748c-0.465-0.092-0.901-0.21-1.302-0.344c0.439,0.149,0.93,0.273,1.451,0.371
		C114.682,61.765,114.63,61.758,114.581,61.748z"/>
	<path d="M121.73,61.175c0.076-0.03,0.152-0.062,0.229-0.094C121.884,61.113,121.809,61.145,121.73,61.175z"/>
	<path d="M115.227,61.859c0.065,0.01,0.133,0.018,0.198,0.027C115.357,61.877,115.292,61.869,115.227,61.859z"/>
	<path d="M124.868,55.848c-0.007-0.019-0.013-0.036-0.019-0.052C124.855,55.812,124.861,55.83,124.868,55.848z"/>
	<path d="M120.127,61.673c0.071-0.017,0.143-0.038,0.213-0.055C120.27,61.635,120.198,61.656,120.127,61.673z"/>
	<path d="M120.934,61.455c0.075-0.023,0.151-0.05,0.228-0.075C121.085,61.405,121.009,61.432,120.934,61.455z"/>
	<path d="M125.221,56.999c0.127,0.456,0.256,0.992,0.348,1.521c-0.182-1.074-0.526-2.159-0.682-2.619
		C124.965,56.135,125.092,56.526,125.221,56.999z"/>
	<path d="M122.518,60.829c0.073-0.036,0.147-0.072,0.221-0.11C122.665,60.757,122.591,60.793,122.518,60.829z"/>
	<path d="M102.316,81.828c-0.084,0.025-0.17,0.05-0.26,0.072C102.146,81.877,102.232,81.854,102.316,81.828z"/>
	<path d="M124.061,59.896c0.049-0.037,0.102-0.07,0.15-0.108C124.161,59.826,124.109,59.859,124.061,59.896z"/>
	<path d="M123.29,60.409c0.065-0.04,0.134-0.078,0.2-0.12C123.424,60.331,123.355,60.369,123.29,60.409z"/>
	<polygon points="77.256,80.75 75.164,78.668 73.438,76.25 71.407,74.064 69.486,71.884 67.844,69.48 66.147,67.09 64.827,64.574 
		63.292,62.149 62.017,59.668 62.183,63.007 63.159,65.572 64.868,68.038 65.949,70.803 69.314,74.882 69.895,75.449 70.172,76.41 
		73.476,79.939 75.588,81.994 77.738,84.059 78.584,84.596 80.972,84.111 81.84,83.807 79.916,82.37 	"/>
	<path d="M102.945,81.602c-0.078,0.033-0.161,0.067-0.25,0.101C102.784,81.669,102.868,81.635,102.945,81.602z"/>
	<path d="M101.6,82.014c-0.119,0.025-0.24,0.051-0.365,0.074C101.359,82.062,101.48,82.039,101.6,82.014z"/>
	<path d="M101.966,81.925c-0.106,0.027-0.217,0.056-0.331,0.08C101.749,81.979,101.857,81.952,101.966,81.925z"/>
	<path d="M103.395,81.354c-0.115,0.082-0.258,0.162-0.424,0.235C103.137,81.516,103.277,81.436,103.395,81.354z"/>
	<path d="M102.667,81.712c-0.094,0.034-0.192,0.067-0.296,0.099C102.475,81.779,102.573,81.746,102.667,81.712z"/>
	<polygon points="114.104,89.861 117.343,88.896 122.635,87.122 123.54,86.408 124.438,86.141 130.165,83.914 133.016,81.956 
		136.199,80.489 138.82,78.659 141.286,75.857 138.466,77.503 135.463,78.999 132.576,80.654 129.456,82.064 126.376,83.499 
		123.212,84.645 119.945,85.748 116.785,87.167 113.538,88.156 110.129,88.539 107.85,88.969 109.048,89.964 110.061,90.913 
		110.82,90.816 	"/>
	<path d="M103.568,81.202c-0.041,0.043-0.09,0.086-0.145,0.127C103.479,81.288,103.527,81.246,103.568,81.202z"/>
	<path d="M115.503,103.938c-1.958,1.889-4.067,2.627-4.067,2.627c-0.072,0.576-0.031,1.901,0.575,1.801
		c2.642-0.453,5.978-0.047,7.457,0.548c1.32,0.528,3.955,1.817,5.154,1.837c1.565-0.07,2.95-1.529,4.06-3.291
		c0.252-0.473,0.494-1.068,0.642-1.793c-0.884,1.314-3.294,1.666-3.294,1.666c0.453-0.846-0.049-2.08-0.049-2.08
		c-1.23,1.161-2.532,0.954-2.532,0.954c0.442-0.933-0.179-2.019-0.179-2.019s-1.551,1.275-2.57,1
		c0.478-0.742,0.061-1.965,0.061-1.965s-1.451,0.92-2.646,1.098c0.924-1.467,0.099-3.086-0.262-3.668
		c-0.287,0.636-0.625,1.207-0.996,1.727c-0.347,0.594-0.812,1.215-1.416,1.7C115.462,104.029,115.48,103.98,115.503,103.938z"/>
	<path d="M124.833,55.746c-0.004-0.012-0.008-0.021-0.011-0.03C124.825,55.724,124.829,55.734,124.833,55.746z"/>
	<path d="M103.586,79.486c-0.016,0.003-0.029,0.005-0.029,0.005S103.566,79.489,103.586,79.486z"/>
	<path d="M123.966,34.626c-0.196-0.005-0.399-0.008-0.616-0.007c-0.067,0-0.141,0.002-0.209,0.003
		C123.432,34.619,123.709,34.62,123.966,34.626z"/>
	<path d="M124.109,33.636c-0.069-0.042-0.144-0.084-0.217-0.126C123.966,33.552,124.04,33.594,124.109,33.636z"/>
	<polygon points="124.66,33.987 124.66,33.987 124.654,33.984 	"/>
	<path d="M123.475,33.278c-0.068-0.037-0.139-0.074-0.209-0.11C123.336,33.205,123.404,33.242,123.475,33.278z"/>
	<path d="M125.214,34.409c0.172,0.14,0.332,0.287,0.479,0.437c-0.159-0.164-0.34-0.323-0.532-0.479
		C125.18,34.38,125.198,34.394,125.214,34.409z"/>
	<path d="M121.38,32.346c-0.288-0.109-0.58-0.213-0.877-0.313C120.8,32.132,121.093,32.237,121.38,32.346z"/>
	<path d="M120.302,31.963c-0.36-0.119-0.727-0.231-1.096-0.336C119.575,31.732,119.941,31.845,120.302,31.963z"/>
	<path d="M122.609,32.853c0.039,0.018,0.076,0.037,0.117,0.055c-0.359-0.166-0.733-0.324-1.121-0.475
		C121.95,32.567,122.287,32.706,122.609,32.853z"/>
	<path d="M119.083,31.594c-0.326-0.091-0.653-0.177-0.981-0.257C118.43,31.417,118.758,31.502,119.083,31.594z"/>
	<path d="M125.527,34.784c0.009,0.002,0.019,0.005,0.025,0.007C125.546,34.789,125.536,34.787,125.527,34.784z"/>
	<path d="M124.812,55.69c-0.004-0.012-0.006-0.019-0.006-0.019S124.811,55.681,124.812,55.69z"/>
	<path d="M122.432,34.636c0.135-0.004,0.27-0.007,0.4-0.01C122.7,34.629,122.566,34.632,122.432,34.636z"/>
	<path d="M121.691,34.664c0.123-0.006,0.246-0.011,0.369-0.016C121.938,34.653,121.814,34.658,121.691,34.664z"/>
	<path d="M120.29,34.743c-0.065,0.005-0.132,0.01-0.198,0.015c0.159-0.011,0.318-0.022,0.477-0.033
		C120.477,34.731,120.384,34.736,120.29,34.743z"/>
	<path d="M124.412,34.642c0.041,0.002,0.083,0.004,0.122,0.006C124.495,34.646,124.453,34.644,124.412,34.642z"/>
	<path d="M125.107,34.701c0.004,0,0.006,0.001,0.01,0.001C125.113,34.702,125.111,34.702,125.107,34.701z"/>
	<path d="M124.023,34.627c0.074,0.002,0.146,0.004,0.219,0.007C124.171,34.631,124.098,34.629,124.023,34.627z"/>
	<path d="M125.337,34.738c0.009,0.002,0.019,0.004,0.028,0.006C125.355,34.742,125.346,34.74,125.337,34.738z"/>
	<path d="M115.438,30.799c-0.283-0.044-0.562-0.084-0.836-0.118C114.876,30.715,115.154,30.755,115.438,30.799z"/>
	<path d="M103.704,79.466c-0.043,0.009-0.077,0.013-0.103,0.019C103.626,79.479,103.661,79.475,103.704,79.466z"/>
	<path d="M121.123,30.197c0.076,0.068,0.148,0.141,0.22,0.211C121.273,30.336,121.199,30.266,121.123,30.197z"/>
	<path d="M121.104,30.557c0.017,0.005,0.035,0.009,0.051,0.014C121.139,30.566,121.12,30.562,121.104,30.557z"/>
	<path d="M120.596,30.431c0.024,0.005,0.049,0.01,0.073,0.016C120.645,30.441,120.62,30.437,120.596,30.431z"/>
	<path d="M120.066,30.329c0.029,0.005,0.06,0.01,0.088,0.015C120.125,30.339,120.096,30.334,120.066,30.329z"/>
	<path d="M128.188,41.076c0.033,0.033,0.062,0.066,0.092,0.1C128.249,41.142,128.219,41.109,128.188,41.076z"/>
	<path d="M109.104,76.434c-2.201,2.33-4.75,2.916-5.395,3.032C104.346,79.354,106.896,78.77,109.104,76.434z"/>
	<path d="M109.596,75.874c-0.16,0.192-0.322,0.378-0.486,0.552C109.273,76.252,109.436,76.066,109.596,75.874z"/>
	<path d="M118.371,30.147c0.029,0.001,0.059,0.004,0.089,0.005C118.43,30.151,118.4,30.149,118.371,30.147z"/>
	<path d="M119.518,30.248c0.032,0.004,0.064,0.008,0.098,0.013C119.582,30.256,119.55,30.252,119.518,30.248z"/>
	<path d="M119.091,34.836c-0.104,0.01-0.204,0.021-0.309,0.03c0.204-0.019,0.409-0.037,0.618-0.054
		C119.298,34.82,119.193,34.828,119.091,34.836z"/>
	<path d="M116.734,31.029c-0.365-0.073-0.727-0.139-1.082-0.197C116.009,30.891,116.37,30.956,116.734,31.029z"/>
	<path d="M114.35,30.649c-0.332-0.038-0.656-0.071-0.963-0.094C113.693,30.578,114.02,30.611,114.35,30.649z"/>
	<path d="M118.95,30.188c0.032,0.003,0.067,0.007,0.101,0.01C119.018,30.194,118.982,30.191,118.95,30.188z"/>
	<path d="M117.833,31.271c-0.325-0.077-0.647-0.149-0.97-0.215C117.186,31.123,117.509,31.194,117.833,31.271z"/>
	<path d="M117.782,30c0.012,0,0.024,0,0.036,0C117.807,30,117.794,30,117.782,30z"/>
	<path d="M120.855,34.708c0.142-0.009,0.281-0.017,0.422-0.024C121.137,34.691,120.997,34.699,120.855,34.708z"/>
	<path d="M117.062,35.055c0.022-0.003,0.045-0.006,0.068-0.009C117.107,35.049,117.084,35.052,117.062,35.055z"/>
	<path d="M125.038,53.451c0.01-0.037,0.021-0.074,0.03-0.11C125.059,53.377,125.048,53.414,125.038,53.451z"/>
	<path d="M129.512,43.606c0.016,0.068,0.03,0.129,0.047,0.195c-0.022-0.089-0.043-0.178-0.066-0.272
		C129.497,43.555,129.505,43.582,129.512,43.606z"/>
	<path d="M124.913,54.018c0.01-0.057,0.021-0.113,0.032-0.169C124.934,53.905,124.923,53.961,124.913,54.018z"/>
	<path d="M129.2,42.555c-0.015-0.035-0.032-0.07-0.048-0.104C129.168,42.485,129.186,42.52,129.2,42.555z"/>
	<path d="M124.8,55.15c0.001-0.053,0.003-0.105,0.005-0.158C124.803,55.045,124.801,55.098,124.8,55.15z"/>
	<path d="M129.544,47.6c0.041-0.028,0.08-0.055,0.118-0.081C129.624,47.545,129.585,47.571,129.544,47.6z"/>
	<path d="M129.332,47.751c0.02-0.014,0.039-0.028,0.059-0.042C129.37,47.724,129.352,47.736,129.332,47.751z"/>
	<path d="M125.633,51.897c0.002-0.004,0.004-0.008,0.006-0.013C125.639,51.889,125.635,51.893,125.633,51.897z"/>
	<path d="M125.193,52.936c0.015-0.042,0.029-0.083,0.045-0.125C125.225,52.853,125.208,52.895,125.193,52.936z"/>
	<path d="M129.684,44.363c-0.018-0.082-0.035-0.165-0.054-0.25C129.648,44.199,129.666,44.281,129.684,44.363z"/>
	<path d="M129.032,42.203c-0.022-0.041-0.048-0.081-0.07-0.121C128.984,42.122,129.01,42.162,129.032,42.203z"/>
	<path d="M129.771,44.83c-0.008-0.044-0.017-0.091-0.024-0.136C129.755,44.74,129.764,44.786,129.771,44.83z"/>
	<path d="M124.836,54.557c0.004-0.043,0.01-0.086,0.016-0.129C124.846,54.471,124.84,54.514,124.836,54.557z"/>
	<path d="M127.102,40.129c-0.002-0.001-0.004-0.003-0.006-0.004C127.098,40.126,127.1,40.128,127.102,40.129z"/>
	<path d="M116.296,35.162c0.081-0.012,0.166-0.025,0.251-0.037C116.461,35.137,116.377,35.15,116.296,35.162z"/>
	<path d="M115.535,35.298c0.213-0.045,0.465-0.089,0.748-0.134C116.001,35.208,115.747,35.253,115.535,35.298z"/>
	<path d="M127.925,40.817c-0.021-0.019-0.038-0.038-0.059-0.056C127.887,40.78,127.904,40.799,127.925,40.817z"/>
	<path d="M128.573,41.516c-0.031-0.039-0.062-0.078-0.095-0.116C128.512,41.438,128.542,41.477,128.573,41.516z"/>
	<path d="M128.823,41.857c-0.027-0.042-0.056-0.082-0.085-0.123C128.768,41.775,128.795,41.816,128.823,41.857z"/>
	<path d="M116.635,35.112c0.063-0.009,0.129-0.018,0.194-0.027C116.764,35.094,116.698,35.104,116.635,35.112z"/>
	<path d="M115.832,35.391c1.684,0.516,4.924,1.448,7.822,2.774c0.043,0.019,0.084,0.039,0.127,0.058
		c-3.11-1.441-6.652-2.426-8.246-2.926C115.627,35.327,115.727,35.358,115.832,35.391z"/>
	<path d="M126.221,39.527c-0.007-0.004-0.013-0.007-0.019-0.011C126.208,39.52,126.214,39.523,126.221,39.527z"/>
	<path d="M126.68,39.828c-0.012-0.008-0.022-0.015-0.033-0.022C126.656,39.813,126.667,39.82,126.68,39.828z"/>
	<polygon fill="#FFFFFF" points="107.85,88.969 110.129,88.539 113.538,88.156 116.785,87.167 119.945,85.748 123.212,84.645 
		126.376,83.499 129.456,82.064 132.576,80.654 135.463,78.999 138.466,77.503 141.286,75.857 138.82,78.659 136.199,80.489 
		133.016,81.956 130.165,83.914 124.438,86.141 123.54,86.408 122.635,87.122 117.343,88.896 114.104,89.861 110.82,90.816 
		110.061,90.913 110.795,91.604 112.229,93.248 115.506,92.417 118.906,91.861 122.152,90.596 125.406,89.477 128.736,88.593 
		131.9,87.001 134.965,85.32 137.811,83.366 140.629,81.461 143.637,79.739 146.029,77.376 148.465,75.044 150.092,72.189 
		152.003,69.511 153.827,66.729 155.003,63.783 156.189,60.899 157.318,58.028 157.857,55.139 156.182,57.946 154.302,60.727 
		152.234,63.387 149.665,65.664 147.371,68.229 144.756,70.499 141.723,72.286 138.982,74.372 136.18,76.482 133.102,78.23 
		129.766,79.277 126.721,80.896 123.457,82.261 120.204,83.675 116.764,84.316 113.396,85.049 110.122,86.268 106.783,86.829 
		105.312,87.176 107.204,88.434 	"/>
	<path fill="#FFFFFF" d="M67.898,94.941l-0.883-1.909l-0.501-2.093l1.958-2.016l0.409-0.23c1.399-2.764,3.422-3.528,3.422-3.528
		l-2.625-2.121c-2.16,1.892-3.486,3.687-4.258,5.329c-0.36,0.062-0.838,0.029-1.377-0.318c-0.705-0.459-1.48,0.072-2.319-0.007
		c-0.925-0.089-0.686-0.325-1.891-0.44c-0.833-0.08-1.592,0.365-2.278,0.256c-1.154-0.18-1.064-0.473-1.964-0.53
		c-1.451-0.099-1.942,0.888-3.512-0.433c0.348-0.957,0.641-1.627,0.695-1.746c0.329-0.704-0.951-1.137-1.451-0.502
		c-0.638,1.013-1.123,2.091-1.486,3.179c-0.548-0.25-1.256-0.195-1.821,0.192c-0.657,0.451-0.896,1.207-0.641,1.826
		c0.424-0.615,1.333-1.064,1.333-1.064c-0.469,0.787-0.539,1.464-0.536,1.828c0.3,0.113,0.641,0.148,0.982,0.088
		c-0.176,1.199-0.217,2.361-0.153,3.4c1.477,2.449,3.77,4.424,6.494,5.613c1.895,0.118,2.551,0.918,3.923,1.104
		c2.689,0.373,5.585,0.023,8.426-1.26l2.267-0.988l-1.157-1.617L67.898,94.941z M64.501,98.659c-1.952-1.39-5.097-2.308-6.784-2.358
		c-1.499-0.044-4.656,0.061-5.699-0.375c-1.292-0.656-1.464-2.437-1.19-4.367c0.115-0.5,0.319-1.105,0.699-1.783
		c-0.16,1.466,1.665,2.68,1.665,2.68c0.204-0.896,1.493-1.768,1.493-1.768c0.246,1.469,1.509,1.78,1.509,1.78
		c0.265-0.969,1.559-1.665,1.559-1.665s0.437,1.686,1.506,1.836c0.105-0.818,1.317-1.707,1.317-1.707s0.603,1.338,1.505,1.944
		c0.23-1.61,2.064-2.687,2.775-3.046c-0.191,0.654-0.3,1.273-0.345,1.861c-0.114,0.637-0.146,1.348,0.036,1.99
		c0.013-0.05,0.025-0.094,0.038-0.142c0.367,2.36,1.662,3.795,1.662,3.795C65.908,97.857,64.948,98.979,64.501,98.659z"/>
	<polygon fill="#FFFFFF" points="78.359,84.641 78.584,84.596 77.738,84.059 75.588,81.994 73.476,79.939 70.172,76.41 
		69.895,75.449 69.314,74.882 65.949,70.803 64.868,68.038 63.159,65.572 62.183,63.007 62.017,59.668 63.292,62.149 64.827,64.574 
		66.147,67.09 67.844,69.48 69.486,71.884 71.407,74.064 73.438,76.25 75.164,78.668 77.256,80.75 79.916,82.37 81.84,83.807 
		83.494,83.225 85.154,83.157 83.979,82.173 81.504,80.425 79.546,78.134 77.163,76.229 74.66,74.372 72.852,71.93 71.005,69.518 
		69.519,66.973 67.385,64.812 65.965,62.143 65.027,59.267 64.128,56.44 62.773,53.755 62.106,50.817 61.928,47.746 61.309,44.815 
		61.389,41.75 61.711,38.654 62.228,35.607 60.678,38.293 59.65,41.183 58.655,44.104 57.616,47.076 57.242,50.158 57.016,53.181 
		56.426,56.249 56.892,59.17 57.303,62.105 58.678,64.724 59.769,67.429 60.853,70.184 62.313,72.786 63.918,75.354 66.157,77.376 
		68.166,79.568 70.073,81.893 72.603,83.654 74.883,85.656 75.024,85.773 75.792,85.489 	"/>
	<path fill="#FFFFFF" d="M115.749,100.997l-1.547,2.042l-2.322,1.473l-2.528,0.883l-1.961,0.94l1.129,1.532
		c1.543,2.175,3.781,3.576,6.347,4.277c1.311,0.359,2.431-0.078,4.136,0.541c3.167,0.014,6.503-0.81,9.479-2.354
		c0.778-0.867,1.551-1.875,2.235-2.977c0.25,0.183,0.565,0.289,0.906,0.301c0.255-0.313,0.663-0.918,0.812-1.773
		c0,0,0.465,0.734,0.404,1.419c0.646-0.431,0.967-1.17,0.719-1.808c-0.215-0.549-0.785-0.861-1.427-0.855
		c0.447-1.07,0.779-2.18,0.938-3.289c0.012-0.733-1.385-0.85-1.6-0.123c-0.035,0.123-0.248,0.812-0.611,1.76
		c-2.269,0.537-2-0.49-3.317-0.959c-0.813-0.291-0.938-0.01-2.054-0.291c-0.668-0.166-1.004-0.836-1.776-1.084
		c-1.116-0.356-1.071-0.063-1.929-0.338c-0.775-0.25-1.068-1.002-1.99-0.877c-0.705,0.096-1.139-0.055-1.404-0.248
		c0.479-1.701,0.59-3.742,0.055-6.188l-3.725,0.826c0,0,1.023,1.21,0.614,3.675l0.449,1.471L115.749,100.997z M116.855,102.377
		c0.369-0.52,0.707-1.09,0.994-1.727c0.36,0.582,1.187,2.201,0.262,3.668c1.195-0.178,2.647-1.098,2.647-1.098
		s0.417,1.223-0.061,1.965c1.021,0.274,2.569-1,2.569-1s0.623,1.086,0.18,2.019c0,0,1.301,0.207,2.533-0.954
		c0,0,0.5,1.234,0.047,2.08c0,0,2.412-0.352,3.295-1.666c-0.147,0.725-0.389,1.32-0.641,1.793c-1.111,1.761-2.494,3.221-4.061,3.291
		c-1.199-0.02-3.833-1.309-5.154-1.837c-1.48-0.595-4.816-1.001-7.457-0.548c-0.605,0.102-0.646-1.225-0.574-1.801
		c0,0,2.108-0.738,4.066-2.627c-0.021,0.045-0.041,0.092-0.062,0.141C116.042,103.593,116.508,102.971,116.855,102.377z"/>
	<polygon fill="#FFFFFF" points="102.057,68.873 104.918,69.141 105.743,67.112 104.646,65.767 102.973,66.558 	"/>
	<polygon fill="#FFFFFF" points="97.924,67.712 100.583,68.592 101.469,66.462 100.468,64.905 98.781,65.543 	"/>
	<polygon fill="#FFFFFF" points="106.842,69.225 108.971,69.18 109.646,67.45 108.562,66.602 107.734,66.966 	"/>
	<polygon fill="#FFFFFF" points="96.533,64.121 95.024,64.42 94.326,66.162 96.631,67.259 97.387,65.345 	"/>
	<path fill="#FFFFFF" d="M91.723,64.296l1.502,0.864l0.469-1.18l-1.853-2.354C91.978,62.674,91.809,63.688,91.723,64.296z"/>
	<path fill="#FFFFFF" d="M101.6,82.014c0.012-0.004,0.023-0.006,0.037-0.009c0.113-0.024,0.223-0.053,0.33-0.08
		c0.031-0.008,0.061-0.016,0.092-0.024c0.088-0.022,0.174-0.047,0.258-0.072c0.02-0.005,0.037-0.01,0.056-0.016
		c0.103-0.033,0.202-0.065,0.296-0.1c0.01-0.004,0.02-0.008,0.029-0.011c0.088-0.032,0.171-0.066,0.25-0.101
		c0.008-0.004,0.016-0.009,0.023-0.013c0.166-0.073,0.309-0.153,0.424-0.235c0.01-0.008,0.021-0.017,0.03-0.023
		c0.054-0.041,0.104-0.083,0.144-0.127c-0.832,0.039-4.939-0.146-6.534-1.371c0,0,4.258,0.479,6.522-0.341
		c0,0,0.014-0.003,0.029-0.005c0.004,0,0.012,0.265,0.018,0.265c0.023-0.005,0.058,0.249,0.102,0.249c0.002,0,0.003,0,0.005,0
		c0.644-1,3.192-0.971,5.394-3.3c0.002-0.002,0.004-0.138,0.006-0.142c0.164-0.173,0.326-0.425,0.486-0.619
		c0.004-0.004,0.008-0.043,0.012-0.047l-0.041-1.485l-3.127,0.118l-1.744,2.815l-0.204-3.049l-2.982-0.228l-2.354,2.848l0.089-3.317
		l-2.702-0.944l-2.398,2.511l0.58-3.058l-2.563-1.299l-1.901,2.108l-0.21-2.603c0.201-0.508-1.365-5.79-1.365-5.79
		s0.016,1.333-0.124,2.366c-0.013,0.976-0.135,2.125-0.492,3.324c-0.334,1.129-1.365,2.645-1.199,3.842
		c2.204,1.899,2.791,6.373,10.146,7.889c1.26,0.293,2.713,0.303,4.208,0.146c0.004,0,0.008-0.001,0.012-0.002
		C101.359,82.064,101.48,82.039,101.6,82.014z"/>
	<path fill="#FFFFFF" d="M89.287,58.357c1.49,0.57,2.16,1.594,2.435,2.665l3.249,2.072l2.057-0.262l1.442,1.595l2.359-0.364
		l1.627,1.493l2.5-0.642l1.737,1.209l2.393-0.807l1.555,1.011l2.678-0.329l1.51-1.562l-1.547-3.033
		c0.398,0.134,0.835,0.252,1.301,0.344c0.049,0.01,0.1,0.018,0.148,0.027c0.164,0.031,0.328,0.06,0.496,0.085
		c0.066,0.01,0.133,0.018,0.199,0.027c0.174,0.023,0.35,0.042,0.529,0.059c0.057,0.005,0.113,0.011,0.17,0.015
		c0.939,0.074,1.945,0.049,2.963-0.098c0.082-0.012,0.162-0.019,0.243-0.032c0.043-0.007,0.086-0.018,0.13-0.025
		c0.223-0.039,0.443-0.081,0.666-0.132c0.071-0.017,0.143-0.038,0.213-0.055c0.198-0.05,0.396-0.103,0.594-0.163
		c0.075-0.023,0.151-0.05,0.228-0.075c0.19-0.063,0.381-0.131,0.571-0.205c0.076-0.03,0.151-0.062,0.229-0.094
		c0.188-0.079,0.373-0.163,0.559-0.252c0.072-0.036,0.146-0.072,0.219-0.11c0.188-0.096,0.371-0.201,0.553-0.31
		c0.066-0.04,0.134-0.078,0.2-0.12c0.194-0.123,0.383-0.255,0.569-0.393c0.051-0.037,0.103-0.07,0.151-0.108
		c0.479-0.368,0.937-0.788,1.358-1.267c-0.094-0.53-0.221-1.065-0.348-1.521c-0.13-0.473-0.257-0.864-0.334-1.097
		c-0.008-0.02-0.014-0.037-0.02-0.054c-0.006-0.018-0.012-0.036-0.018-0.052c-0.008-0.019-0.014-0.036-0.019-0.05
		c-0.004-0.011-0.008-0.021-0.011-0.03c-0.004-0.009-0.008-0.02-0.01-0.025c-0.002-0.009-0.006-0.019-0.006-0.019
		c-0.01-0.177-0.011-0.35-0.007-0.521c0.001-0.053,0.003-0.105,0.005-0.158c0.006-0.147,0.016-0.292,0.031-0.436
		c0.004-0.043,0.01-0.086,0.016-0.129c0.017-0.138,0.037-0.275,0.062-0.41c0.01-0.057,0.021-0.113,0.032-0.169
		c0.027-0.134,0.058-0.267,0.093-0.398c0.01-0.037,0.021-0.074,0.03-0.11c0.039-0.137,0.08-0.271,0.125-0.405
		c0.015-0.042,0.029-0.083,0.045-0.125c0.113-0.316,0.246-0.621,0.395-0.914c0.002-0.004,0.004-0.008,0.006-0.013
		c0.977-1.925,2.59-3.333,3.692-4.133c0.021-0.015,0.039-0.027,0.058-0.042c0.053-0.038,0.105-0.074,0.155-0.109
		c0.041-0.028,0.08-0.055,0.118-0.081c0.061-0.041,0.117-0.08,0.173-0.117c0.085-0.936,0.079-1.683-0.065-2.572
		c-0.008-0.044-0.016-0.09-0.023-0.136c-0.02-0.107-0.041-0.219-0.062-0.331c-0.018-0.083-0.035-0.164-0.054-0.25
		c-0.022-0.101-0.047-0.206-0.073-0.312c-0.016-0.065-0.029-0.127-0.047-0.195c-0.006-0.025-0.014-0.052-0.02-0.077
		c-0.051-0.196-0.104-0.397-0.165-0.615c-0.034-0.121-0.077-0.241-0.126-0.359c-0.014-0.035-0.032-0.07-0.049-0.104
		c-0.037-0.083-0.075-0.166-0.119-0.248c-0.022-0.041-0.047-0.081-0.07-0.121c-0.044-0.076-0.09-0.15-0.139-0.225
		c-0.027-0.042-0.057-0.082-0.086-0.123c-0.051-0.073-0.106-0.146-0.164-0.218c-0.031-0.039-0.062-0.078-0.094-0.116
		c-0.063-0.076-0.131-0.15-0.199-0.225c-0.03-0.033-0.061-0.066-0.092-0.1c-0.084-0.087-0.172-0.173-0.264-0.258
		c-0.02-0.019-0.039-0.038-0.059-0.056c-0.235-0.216-0.491-0.427-0.766-0.632c-0.002-0.001-0.005-0.003-0.007-0.004
		c-0.135-0.101-0.272-0.199-0.416-0.297c-0.011-0.008-0.022-0.015-0.032-0.022c-0.14-0.094-0.281-0.188-0.427-0.279
		c-0.006-0.004-0.012-0.007-0.018-0.011c-0.741-0.465-1.564-0.896-2.421-1.292c-0.043-0.02-0.084-0.039-0.127-0.058
		c-2.898-1.327-6.139-2.258-7.822-2.774c-0.105-0.033-0.205-0.064-0.297-0.093c0.212-0.045,0.466-0.09,0.748-0.134
		c0.005,0,0.009-0.001,0.013-0.002c0.082-0.012,0.165-0.025,0.251-0.037c0.029-0.004,0.059-0.008,0.088-0.013
		c0.062-0.009,0.128-0.018,0.194-0.027c0.075-0.01,0.153-0.021,0.231-0.031c0.023-0.003,0.045-0.006,0.069-0.009
		c0.507-0.064,1.065-0.125,1.651-0.18c0.104-0.01,0.205-0.021,0.31-0.03c0.103-0.008,0.207-0.016,0.31-0.024
		c0.229-0.019,0.459-0.037,0.691-0.054c0.066-0.005,0.133-0.01,0.198-0.015c0.094-0.007,0.187-0.012,0.278-0.018
		c0.097-0.006,0.191-0.012,0.287-0.018c0.143-0.009,0.282-0.017,0.422-0.024c0.14-0.007,0.276-0.014,0.414-0.02
		c0.125-0.006,0.248-0.011,0.369-0.016c0.125-0.004,0.25-0.009,0.373-0.012c0.135-0.004,0.269-0.007,0.4-0.01
		c0.104-0.002,0.207-0.003,0.309-0.004c0.069-0.001,0.143,0.184,0.209,0.184c0.217-0.001,0.422,0.194,0.617,0.194
		c0.02,0,0.038,0,0.057,0c0.076,0,0.148-0.182,0.22-0.179c0.059,0.002,0.114-0.088,0.17-0.085c0.041,0.002,0.083-0.043,0.122-0.04
		c0.215,0.013,0.406,0.007,0.574,0.029c0.002,0,0.006-0.011,0.009-0.01c0.079,0.011,0.151,0.017,0.219,0.03
		c0.009,0.002,0.019,0.001,0.028,0.003c0.06,0.012,0.113,0.024,0.162,0.039c0.01,0.002,0.02,0.004,0.027,0.006
		c0.053,0.017,0.102,0.034,0.139,0.054c-0.147-0.15-0.307-0.297-0.479-0.437c-0.017-0.015-0.036-0.028-0.053-0.043
		c-0.158-0.128-0.323-0.255-0.501-0.378l0,0c-0.001-0.001-0.003-0.002-0.004-0.003c-0.172-0.119-0.356-0.234-0.545-0.348
		c-0.07-0.042-0.146-0.084-0.217-0.126c-0.137-0.079-0.275-0.156-0.418-0.231c-0.069-0.037-0.14-0.074-0.211-0.11
		c-0.175-0.088-0.354-0.175-0.537-0.26c-0.041-0.018-0.078-0.038-0.117-0.055c-0.322-0.147-0.659-0.286-1.002-0.42
		c-0.075-0.03-0.151-0.058-0.228-0.087c-0.286-0.109-0.58-0.213-0.877-0.313c-0.067-0.023-0.133-0.046-0.2-0.069
		c-0.361-0.119-0.728-0.231-1.097-0.336c-0.041-0.012-0.082-0.021-0.123-0.033c-0.326-0.091-0.653-0.177-0.981-0.257
		c-0.09-0.022-0.18-0.044-0.269-0.065c-0.324-0.077-0.647-0.149-0.969-0.215c-0.043-0.009-0.087-0.019-0.13-0.027
		c-0.364-0.073-0.727-0.139-1.082-0.197c-0.071-0.012-0.143-0.022-0.215-0.033c-0.282-0.044-0.562-0.084-0.836-0.118
		c-0.084-0.011-0.17-0.022-0.252-0.032c-0.332-0.038-0.656-0.135-0.963-0.157c1.364-0.31,2.92-0.492,4.396-0.492
		c0.012,0,0.024,0,0.036,0c0.187,0,0.371,0.074,0.553,0.084c0.029,0.001,0.059,0.036,0.089,0.037
		c0.165,0.009,0.329,0.037,0.491,0.05c0.033,0.003,0.066,0.015,0.102,0.018c0.157,0.015,0.312,0.036,0.467,0.055
		c0.031,0.004,0.063,0.01,0.097,0.015c0.153,0.021,0.304,0.044,0.452,0.069c0.029,0.005,0.06,0.01,0.088,0.015
		c0.15,0.027,0.297,0.056,0.439,0.087c0.025,0.005,0.051,0.011,0.074,0.017c0.148,0.034,0.293,0.07,0.434,0.109
		c0.018,0.005,0.035,0.009,0.053,0.014c0.156,0.045,0.308,0.092,0.453,0.144c-0.078-0.106-0.17-0.207-0.266-0.306
		c-0.07-0.071-0.145-0.143-0.22-0.211c-0.005-0.004-0.01-0.009-0.015-0.013c-2.812-1.43-4.086-1.325-4.109-1.325
		c-0.857-0.612-3.195-1.397-14.018,0.963c-5.827,1.269-8.771,3.693-10.625,6.375c0.874-0.756,2.089-1.187,3.142-1.362
		c0,0-3.355,2.874-5.049,4.851c-0.169,0.373-0.325,0.731-0.472,1.069c0,0-1.331,2.647-1.19,2.309
		c-0.756,1.799-0.105,3.101-0.105,3.101c1.847-4.676,5.549-6.226,6.561-6.615c-0.616,0.612-5.228,4.437-6.025,11.526l-3.534-1.684
		l-0.389,5.781C85.5,55.876,85.258,56.82,89.287,58.357z M119.911,47.121l5.202,2.635l-4.896-0.268c0,0,2.635,3.282,1.272,5.868
		c0,0-11.224,5.014-10.33-5.479l-1.123-1.17C116.087,49.66,119.911,47.121,119.911,47.121z M108.927,59.828l-4.255,2.283
		c1.018-1.751,1.424-6.2,1.424-6.2s-2.75,3.971-3.101,5.862l-2.058-3.579c0,0,2.871-1.059,6.845-6.784
		C107.204,57.831,108.927,59.828,108.927,59.828z M94.077,43.416l6.296-0.284c0,0,1.516,3.626,7.363,5.106l-1.776,0.581
		c-6.538,9.338-12.674,0.778-12.674,0.778c0.631-2.733,5.176-4.548,5.176-4.548L94.077,43.416z"/>
	<path d="M121.488,55.356c1.363-2.586-1.271-5.868-1.271-5.868l4.896,0.268l-5.202-2.635c0,0-3.824,2.539-9.875,1.585l1.123,1.17
		C110.266,60.37,121.488,55.356,121.488,55.356z"/>
	<path d="M93.286,49.596c0,0,6.136,8.56,12.674-0.778l1.776-0.581c-5.848-1.479-7.363-5.106-7.363-5.106l-6.296,0.284l4.385,1.632
		C98.462,45.048,93.917,46.863,93.286,49.596z"/>
	<path d="M100.938,58.195l2.058,3.579c0.351-1.892,3.101-5.862,3.101-5.862s-0.406,4.449-1.424,6.2l4.255-2.283
		c0,0-1.723-1.997-1.145-8.417C103.809,57.136,100.938,58.195,100.938,58.195z"/>
	<g>
		<polygon fill="none" points="107.734,66.966 106.842,69.225 108.971,69.18 109.646,67.45 108.562,66.602 		"/>
		<polygon fill="none" points="97.387,65.345 96.533,64.121 95.024,64.42 94.326,66.162 96.631,67.259 		"/>
		<polygon fill="none" points="105.743,67.112 104.646,65.767 102.973,66.558 102.057,68.873 104.918,69.141 		"/>
		<polygon fill="none" points="101.469,66.462 100.468,64.905 98.781,65.543 97.924,67.712 100.583,68.592 		"/>
		<path fill="none" d="M106.438,74.518l-1.744,2.819l-0.205-3.046l-2.981-0.227l-2.354,2.849l0.089-3.317l-2.702-0.943l-2.398,2.51
			l0.58-3.059l-2.563-1.297l-1.901,2.107l-0.21-2.604c0.201-0.506-1.365-5.789-1.365-5.789s0.016,1.333-0.124,2.366
			c-0.013,0.976-0.135,2.125-0.492,3.324c-0.334,1.129-1.365,2.644-1.199,3.843c2.204,1.898,2.791,6.372,10.146,7.887
			c1.26,0.295,2.713,0.304,4.208,0.147c0.004,0,0.008-0.001,0.012-0.002c0.125-0.024,0.246-0.049,0.365-0.075
			c0.012-0.003,0.023-0.005,0.036-0.008c0.114-0.025,0.224-0.053,0.331-0.08c0.031-0.008,0.061-0.016,0.092-0.023
			c0.088-0.023,0.174-0.049,0.258-0.073c0.02-0.005,0.037-0.011,0.056-0.017c0.104-0.031,0.202-0.064,0.296-0.099
			c0.01-0.004,0.02-0.008,0.029-0.011c0.088-0.032,0.171-0.066,0.25-0.102c0.008-0.004,0.016-0.008,0.023-0.012
			c0.166-0.074,0.309-0.152,0.424-0.236c0.01-0.008,0.021-0.016,0.03-0.022c0.054-0.041,0.104-0.083,0.144-0.127
			c-0.832,0.039-4.939-0.146-6.534-1.371c0,0,4.258,0.478,6.522-0.341c0,0,0.012-0.001,0.029-0.006c0.004,0,0.012,0.266,0.018,0.266
			c0.023-0.005,0.058,0.249,0.102,0.249c0.002,0,0.003,0,0.005,0c0.638-1,3.188-0.965,5.394-3.3
			c0.002-0.002,0.004-0.139,0.006-0.141c0.164-0.174,0.326-0.426,0.486-0.619c0.004-0.006,0.008-0.043,0.012-0.047l-0.041-1.486
			L106.438,74.518z"/>
		<path fill="none" d="M93.225,65.161l0.469-1.18l-1.853-2.354c0.136,1.048-0.032,2.062-0.118,2.67L93.225,65.161z"/>
		<polygon fill="none" points="154.302,60.727 152.234,63.387 149.665,65.664 147.371,68.229 144.756,70.499 141.723,72.286 
			138.982,74.372 136.18,76.482 133.102,78.23 129.766,79.277 126.721,80.896 123.457,82.261 120.204,83.675 116.764,84.316 
			113.396,85.049 110.122,86.268 106.783,86.829 105.312,87.176 107.204,88.434 107.85,88.969 109.048,89.964 110.061,90.913 
			110.795,91.604 112.229,93.248 115.506,92.417 118.906,91.861 122.152,90.596 125.406,89.477 128.736,88.593 131.9,87.001 
			134.965,85.32 137.811,83.366 140.629,81.461 143.637,79.739 146.029,77.376 148.465,75.044 150.092,72.189 152.003,69.511 
			153.827,66.729 155.003,63.783 156.189,60.899 157.318,58.028 157.857,55.139 156.182,57.946 		"/>
		<path fill="none" d="M119.79,99.438c-0.705,0.095-1.14-0.056-1.403-0.25c0.479-1.701,0.59-3.742,0.055-6.188l-3.726,0.826
			c0,0,1.023,1.21,0.614,3.675l0.449,1.47l-0.029,2.025l-1.547,2.042l-2.322,1.473l-2.529,0.884l-1.961,0.939l1.129,1.532
			c1.543,2.175,3.782,3.575,6.348,4.276c1.311,0.36,2.431-0.076,4.136,0.543c3.167,0.013,6.503-0.811,9.479-2.354
			c0.777-0.867,1.55-1.875,2.234-2.976c0.25,0.182,0.565,0.287,0.906,0.299c0.255-0.312,0.663-0.918,0.811-1.772
			c0,0,0.465,0.734,0.405,1.419c0.647-0.431,0.966-1.17,0.718-1.808c-0.214-0.55-0.785-0.861-1.426-0.854
			c0.447-1.072,0.779-2.181,0.938-3.291c0.013-0.732-1.385-0.849-1.598-0.121c-0.035,0.121-0.25,0.811-0.613,1.76
			c-2.268,0.537-2-0.491-3.316-0.961c-0.812-0.289-0.938-0.008-2.055-0.289c-0.666-0.168-1.004-0.836-1.775-1.084
			c-1.115-0.357-1.07-0.064-1.929-0.338C121.005,100.062,120.712,99.312,119.79,99.438z"/>
		<path fill="none" d="M89.287,58.357c1.49,0.57,2.16,1.594,2.435,2.665l3.249,2.072l2.057-0.262l1.442,1.595l2.359-0.364
			l1.627,1.493l2.5-0.642l1.737,1.209l2.393-0.807l1.555,1.011l2.678-0.329l1.51-1.562l-1.547-3.033
			c0.439,0.149,0.929,0.273,1.449,0.371c0.164,0.031,0.328,0.06,0.496,0.085c0.066,0.01,0.133,0.018,0.199,0.027
			c0.174,0.023,0.35,0.042,0.529,0.059c0.057,0.005,0.113,0.011,0.17,0.015c0.939,0.074,1.945,0.049,2.963-0.098
			c0.125-0.018,0.249-0.036,0.374-0.058c0.222-0.039,0.444-0.081,0.666-0.132c0.071-0.017,0.142-0.038,0.213-0.055
			c0.198-0.05,0.396-0.103,0.593-0.163c0.076-0.023,0.152-0.05,0.229-0.075c0.191-0.063,0.381-0.131,0.57-0.205
			c0.076-0.03,0.152-0.062,0.229-0.094c0.188-0.079,0.373-0.163,0.558-0.252c0.073-0.036,0.147-0.072,0.221-0.11
			c0.187-0.096,0.371-0.201,0.552-0.31c0.065-0.04,0.134-0.078,0.2-0.12c0.193-0.123,0.383-0.255,0.57-0.393
			c0.049-0.037,0.102-0.07,0.15-0.108c0.48-0.368,0.938-0.788,1.357-1.267c-0.182-1.074-0.526-2.159-0.682-2.619
			c-0.008-0.02-0.014-0.037-0.02-0.054c-0.006-0.019-0.012-0.036-0.018-0.052c-0.008-0.019-0.014-0.036-0.019-0.05
			c-0.004-0.012-0.008-0.021-0.011-0.03c-0.004-0.009-0.008-0.02-0.01-0.025c-0.004-0.012-0.006-0.019-0.006-0.019
			c-0.01-0.177-0.011-0.35-0.007-0.521c0.001-0.053,0.003-0.105,0.005-0.158c0.006-0.147,0.016-0.292,0.031-0.436
			c0.004-0.043,0.01-0.086,0.016-0.129c0.017-0.138,0.037-0.275,0.062-0.41c0.01-0.057,0.021-0.113,0.032-0.169
			c0.027-0.134,0.058-0.267,0.093-0.398c0.01-0.037,0.021-0.074,0.03-0.11c0.039-0.137,0.08-0.271,0.125-0.405
			c0.015-0.042,0.029-0.083,0.045-0.125c0.113-0.316,0.246-0.621,0.395-0.914c0.002-0.004,0.004-0.008,0.006-0.013
			c0.977-1.925,2.59-3.333,3.692-4.133c0.021-0.014,0.039-0.028,0.058-0.042c0.053-0.038,0.105-0.074,0.155-0.109
			c0.041-0.028,0.08-0.055,0.118-0.081c0.061-0.041,0.117-0.08,0.173-0.117c0.085-0.936,0.079-1.683-0.065-2.572
			c-0.006-0.044-0.016-0.091-0.023-0.136c-0.02-0.107-0.041-0.219-0.062-0.331c-0.018-0.082-0.035-0.165-0.054-0.25
			c-0.022-0.101-0.047-0.206-0.073-0.312c-0.021-0.089-0.043-0.178-0.065-0.272c-0.052-0.196-0.104-0.397-0.165-0.615
			c-0.034-0.121-0.077-0.241-0.126-0.359c-0.015-0.035-0.032-0.07-0.048-0.104c-0.039-0.083-0.076-0.166-0.12-0.248
			c-0.022-0.041-0.048-0.081-0.07-0.121c-0.044-0.076-0.09-0.15-0.14-0.225c-0.026-0.042-0.055-0.082-0.084-0.123
			c-0.053-0.073-0.107-0.146-0.166-0.218c-0.03-0.039-0.062-0.078-0.094-0.116c-0.062-0.076-0.129-0.15-0.199-0.225
			c-0.029-0.033-0.06-0.066-0.092-0.1c-0.084-0.087-0.172-0.173-0.263-0.258c-0.021-0.019-0.038-0.038-0.059-0.056
			c-0.235-0.216-0.491-0.427-0.765-0.632c-0.002-0.001-0.006-0.003-0.008-0.004c-0.135-0.101-0.273-0.199-0.416-0.297
			c-0.011-0.008-0.021-0.015-0.033-0.022c-0.139-0.094-0.281-0.188-0.426-0.279c-0.006-0.004-0.012-0.007-0.018-0.011
			c-0.741-0.465-1.564-0.896-2.422-1.292c-3.109-1.441-6.651-2.426-8.245-2.926c0.213-0.045,0.465-0.089,0.748-0.134
			c0.005,0,0.009-0.001,0.013-0.002c0.081-0.012,0.166-0.025,0.251-0.037c0.029-0.004,0.058-0.008,0.088-0.013
			c0.063-0.009,0.128-0.018,0.194-0.027c0.076-0.01,0.154-0.021,0.232-0.031c0.022-0.003,0.045-0.006,0.068-0.009
			c0.507-0.064,1.066-0.125,1.652-0.18c0.203-0.02,0.41-0.037,0.619-0.054c0.229-0.019,0.459-0.037,0.69-0.054
			c0.159-0.011,0.318-0.022,0.478-0.033c0.096-0.006,0.19-0.012,0.287-0.018c0.142-0.009,0.281-0.017,0.422-0.024
			c0.139-0.007,0.275-0.014,0.414-0.02c0.123-0.006,0.246-0.011,0.369-0.016c0.125-0.004,0.25-0.009,0.373-0.012
			c0.135-0.004,0.269-0.007,0.399-0.01c0.104-0.002,0.207,0.184,0.31,0.183c0.291-0.003,0.567,0.191,0.825,0.191
			c0.019,0,0.038,0,0.058,0c0.074,0,0.146-0.182,0.219-0.179c0.059,0.002,0.115-0.088,0.17-0.085
			c0.041,0.002,0.083-0.043,0.122-0.04c0.215,0.013,0.405,0.007,0.573,0.029c0.004,0,0.007-0.011,0.01-0.01
			c0.078,0.011,0.152,0.017,0.219,0.03c0.01,0.002,0.02,0.001,0.028,0.003c0.06,0.012,0.114,0.024,0.163,0.039
			c0.009,0.002,0.019,0.004,0.025,0.006c0.053,0.017,0.103,0.034,0.139,0.054c-0.158-0.164-0.338-0.323-0.531-0.479
			c-0.158-0.128-0.323-0.255-0.501-0.378c-0.001-0.001-0.003-0.002-0.005-0.003c-0.172-0.119-0.356-0.234-0.545-0.348
			c-0.07-0.042-0.145-0.084-0.217-0.126c-0.137-0.079-0.275-0.156-0.418-0.231c-0.069-0.037-0.14-0.074-0.211-0.11
			c-0.175-0.088-0.354-0.175-0.537-0.26c-0.359-0.166-0.733-0.324-1.121-0.475c-0.074-0.03-0.15-0.058-0.227-0.087
			c-0.288-0.109-0.58-0.213-0.877-0.313c-0.066-0.023-0.133-0.046-0.201-0.069c-0.361-0.119-0.727-0.231-1.096-0.336
			c-0.041-0.012-0.082-0.021-0.123-0.033c-0.326-0.091-0.652-0.177-0.98-0.257c-0.09-0.022-0.181-0.044-0.27-0.065
			c-0.325-0.077-0.646-0.149-0.969-0.215c-0.043-0.009-0.086-0.019-0.129-0.027c-0.366-0.073-0.728-0.139-1.082-0.197
			c-0.072-0.012-0.144-0.022-0.215-0.033c-0.285-0.044-0.562-0.084-0.836-0.118c-0.084-0.011-0.17-0.022-0.254-0.032
			c-0.33-0.038-0.654-0.135-0.963-0.157c1.365-0.31,2.922-0.492,4.396-0.492c0.012,0,0.023,0,0.037,0
			c0.186,0,0.369,0.074,0.552,0.084c0.03,0.001,0.06,0.036,0.089,0.037c0.165,0.009,0.329,0.037,0.491,0.05
			c0.032,0.003,0.067,0.015,0.101,0.018c0.158,0.015,0.313,0.036,0.467,0.055c0.032,0.004,0.064,0.01,0.098,0.015
			c0.152,0.021,0.304,0.044,0.453,0.069c0.029,0.005,0.059,0.01,0.087,0.015c0.149,0.027,0.297,0.056,0.44,0.087
			c0.024,0.005,0.049,0.011,0.073,0.017c0.149,0.034,0.293,0.07,0.435,0.109c0.017,0.005,0.035,0.009,0.052,0.014
			c0.155,0.045,0.308,0.092,0.452,0.144c-0.077-0.106-0.17-0.207-0.264-0.306c-0.068-0.073-0.145-0.143-0.221-0.211
			c-0.005-0.004-0.01-0.009-0.016-0.013c-2.811-1.43-4.086-1.325-4.108-1.325c-0.858-0.612-3.194-1.397-14.017,0.963
			c-5.828,1.269-8.771,3.693-10.625,6.375c0.874-0.756,2.089-1.187,3.142-1.362c0,0-3.355,2.874-5.049,4.851
			c-0.169,0.373-0.325,0.731-0.472,1.069c0,0-1.331,2.647-1.19,2.309c-0.756,1.799-0.105,3.101-0.105,3.101
			c1.847-4.676,5.549-6.226,6.561-6.615c-0.616,0.612-5.228,4.438-6.025,11.526l-3.534-1.684l-0.389,5.781
			C85.5,55.876,85.258,56.82,89.287,58.357z"/>
		<path fill="none" d="M112.326,100h0.035l-0.389-2.109l-1.23-2.055l-1.104-2.148l-1.673-1.768l-1.903-1.432l-2.019-1.385
			l-1.989-1.33l-2.167-0.963l-2.153-1.065l-2.309-0.567l-2.66-0.312l-2.685-0.293l-2.797,0.376l-2.641,0.172l-2.612,0.797
			l-2.603,0.797l-2.605,0.779l-2.373,1.243l-2.491,1.078l-1.496,1.721l0.086,2.043l1.384,1.869l1.167,1.966l1.7,1.657l1.674,1.668
			l1.688,1.676l2.143,1.154l0.396,0.254c1.891-0.541-0.364-4.125-0.364-4.125c3.846,2.436,8.943,4.623,10.264,4.793
			c2.953,0.379,1.546-3.279,1.546-3.279c8.585,4.066,15.81,1.469,19.71-0.705L112.326,100z"/>
		<path fill="none" d="M67.898,94.941l-0.883-1.909l-0.501-2.093l1.958-2.016l0.409-0.23c1.399-2.764,3.422-3.528,3.422-3.528
			l-2.625-2.121c-2.16,1.892-3.486,3.687-4.258,5.329c-0.36,0.062-0.838,0.029-1.377-0.318c-0.705-0.459-1.48,0.072-2.319-0.007
			c-0.925-0.089-0.686-0.325-1.891-0.44c-0.833-0.08-1.592,0.365-2.278,0.256c-1.154-0.18-1.064-0.473-1.964-0.53
			c-1.451-0.099-1.942,0.888-3.512-0.433c0.348-0.957,0.641-1.627,0.695-1.746c0.329-0.704-0.951-1.137-1.451-0.502
			c-0.638,1.013-1.123,2.091-1.486,3.179c-0.548-0.25-1.256-0.195-1.821,0.192c-0.657,0.451-0.896,1.207-0.641,1.826
			c0.424-0.615,1.333-1.064,1.333-1.064c-0.469,0.787-0.539,1.464-0.536,1.828c0.3,0.113,0.641,0.148,0.982,0.088
			c-0.176,1.199-0.217,2.361-0.153,3.4c1.477,2.449,3.77,4.424,6.494,5.613c1.895,0.118,2.551,0.918,3.923,1.104
			c2.689,0.373,5.585,0.023,8.426-1.26l2.267-0.988l-1.157-1.617L67.898,94.941z"/>
		<polygon fill="none" points="68.166,79.568 70.073,81.893 72.603,83.654 74.883,85.656 75.024,85.773 75.792,85.489 
			78.359,84.641 78.584,84.596 80.972,84.111 81.84,83.807 83.494,83.225 85.154,83.157 83.979,82.173 81.504,80.425 79.546,78.134 
			77.163,76.229 74.66,74.372 72.852,71.93 71.005,69.518 69.519,66.973 67.385,64.812 65.965,62.143 65.027,59.267 64.128,56.44 
			62.773,53.755 62.106,50.817 61.928,47.746 61.309,44.815 61.389,41.75 61.711,38.654 62.228,35.607 60.678,38.293 59.65,41.183 
			58.655,44.104 57.616,47.076 57.242,50.158 57.016,53.181 56.426,56.249 56.892,59.17 57.303,62.105 58.678,64.724 59.769,67.429 
			60.853,70.184 62.313,72.786 63.918,75.354 66.157,77.376 		"/>
		<path d="M160.861,50.059l-0.883-2.733l-2.088,3.03l-0.533,1.843l-2.596,2.029l-1.302,2.717l-1.997,2.647l-2.086,2.558l-2.337,2.35
			l-2.622,2.21l-2.966,1.92l-3.481,3.042L133.915,74l0.01,2.1l-1.964-0.699l-2.708,1.701l-3.476,0.789l-3.098,1.471l-4.277,1.229
			l-5.223,1.25l-3.365,0.799l-1.516,0.483c1.525-0.886,3.078-1.767,3.562-1.946l1.726-1.771l2.213-0.988l2.529-5.077
			c0.013-0.026,0.912-2.265,1.153-2.864c0.494-0.259,2.131-1.143,4-2.463l0.033-1.283l1.489,0.141
			c1.546-1.234,3.084-2.714,4.153-4.351c-0.02,0.026,5.345-6.991,5.345-6.991l-2.267-0.182c0.207-0.546,0.928-1.285,1.492-1.719
			l0.045-0.032l0.033-0.051c2.616-3.499,3.174-7.138,3.213-7.412c0.069-0.223,0.127-0.453,0.168-0.683l-0.359-1.078l0.376-1.423
			c-0.363-2.605-1.687-4.95-1.771-5.087l-0.024-0.048l-0.042-0.042l-3.562-3.504l0.047-0.804l0.014-0.186l-0.133-0.134
			c-0.045-0.045-1.075-1.053-3.248-2.634c-1.584-1.519-4.197-3.394-4.369-3.521c-5.799-5.123-14.747-2.185-15.127-2.054
			c-0.01,0-0.682,0.252-0.943,0.351l-2.169-0.351l-0.103-0.019l-6.594,2.153c-5.99,0.628-10.196,6.713-10.566,7.262
			c-4.08,3.965-3.92,7.552-3.866,8.114c-0.15,0.861-0.443,2.229-0.711,2.921c-0.536-0.191-1.458-0.667-1.458-0.667
			s-0.255,4.889-0.415,8.126l1.397,1.77l-1.477-0.102c-0.028,0.647-0.047,1.072-0.044,1.123c-0.013,4.184,1.907,6.698,2.51,7.386
			l-2.73,8.115l0.121,0.821l0.679,1.016l0.194,2.666l0.948,1.352l-1.799-1.505l-2.708-1.812l-2.143-2.258l-2.134-2.207l-1.936-2.307
			l-1.69-2.427L70.12,61.64l-1.139-2.778l-1.161-2.705l-0.912-2.753l-1.206-2.774l-0.711-2.893l-0.37-2.903l-0.013-4.516
			l-0.112-1.824l0.826-1.783l0.389-3.158l0.077-2.752l1.004-3.101l-3.607,2.405l-2.43,2.66l-1.014,1.908l-2.057,2.717l-0.807,3.138
			l-1.761,2.9l-0.44,3.134L53.7,49.618l-0.561,3.119l-0.013,3.139l-0.124,3.126l0.258,3.074l1.448,3.814l2.603,0.269l-2.105,1.372
			l1.286,2.516l1.327,2.823l1.729,2.608l2.006,3.56l2.328,2.276l1.579,2.115l-1.48,1.426l-1.61,0.312l-1.799-0.484l-2.335,0.066
			l-2.038-0.193l0.086-0.264l-0.632-1.275l-0.127-0.938l-1.314-0.545l-2.928-0.1l-2.468,1.723l0.163,0.287l-0.428-0.01l-0.963,1.541
			l-1.059,1.097l-1.946,2.169l-0.778,3.164l0.948,1.347l0.376-0.103l0.669,2.021l0.246,1.13l-0.182,0.612l0.874-0.108l-0.466,0.269
			l1.802,2.552l2.937,1.557l2.718,1.844l0.711-0.239l0.447,0.293l1.41,0.353l2.156,1.118l3.269-0.073l3.409-0.144l3.952-1.269
			l2.916-1.705l-0.206-0.536l0.123,0.122l1.879,1.512l1.741,1.626l2.025,1.308l1.945,1.395l2.37,0.75l2.312,0.758l2.421,0.918
			l2.367,0.25l2.577-0.013l2.494,0.351l2.555-0.421l2.638-0.052l2.548-0.733l2.333-0.565l1.249,2.443l2.504,2.59l2.829,1.416
			l2.75,1.305l2.631-0.141l1.452,0.23l0.589-0.083l0.439,0.478l3.617-0.548l3.607-0.223l3.316-1.505l-0.209-0.409l0.672,0.424
			l0.271-0.59l0.999-0.88l1.983-1.477l0.246,0.232l1.75-0.798l1.539-3.011l-0.16-2.6l-0.146-1.339l0.25-1.688l-0.373-0.152
			l0.338-0.186l-0.92-2.416l-2.58-1.027l-1.509-0.025l-0.76,0.752l-1.429,0.855l-0.107,0.258l-1.885-0.607l-1.955-0.941l-1.881-0.27
			l-1.162-0.877l-0.328-2.093l0.466-0.248l3.511-0.753l5.25-2.852l3.696-1.799l3.202-1.748l3.202-1.748l1.343-1.041l0.812-0.472
			l3.895-2.724l2.367-2.539l2.066-2.729l2.172-2.692l1.689-2.89l1.292-2.993l1.806-2.858l0.506-3.154l1.496-2.998l0.125-3.113
			l0.455-2.022L160.861,50.059z M109.596,75.874c-0.16,0.192-0.322,0.378-0.486,0.552c-0.002,0.004-0.004,0.272-0.006,0.274
			c-2.207,2.335-4.758,2.3-5.395,3.3c-0.002,0-0.003,0-0.005,0c-0.043,0-0.078-0.254-0.103-0.249c-0.004,0-0.012-0.132-0.017-0.132
			c-0.019,0.003-0.03-0.062-0.03-0.062c-2.264,0.819-6.521,0.309-6.521,0.309c1.594,1.225,5.703,1.393,6.535,1.354
			c-0.041,0.043-0.09,0.077-0.145,0.118c-0.01,0.009-0.021,0.011-0.031,0.019c-0.115,0.084-0.256,0.162-0.422,0.234
			c-0.009,0.004-0.018,0.008-0.025,0.012c-0.078,0.034-0.161,0.067-0.25,0.1c-0.01,0.003-0.02,0.007-0.028,0.011
			c-0.094,0.034-0.192,0.067-0.296,0.099c-0.018,0.006-0.037,0.012-0.055,0.017c-0.084,0.024-0.17,0.05-0.26,0.073
			c-0.029,0.008-0.06,0.016-0.091,0.023c-0.106,0.027-0.217,0.055-0.331,0.08c-0.012,0.002-0.025,0.005-0.037,0.008
			c-0.117,0.026-0.24,0.051-0.363,0.075c-0.004,0-0.008,0.001-0.012,0.002c-1.497,0.156-2.95,0.147-4.209-0.147
			c-7.354-1.515-7.941-5.988-10.146-7.887c-0.166-1.199,0.865-2.714,1.199-3.843c0.357-1.198,0.479-2.348,0.492-3.324
			c0.14-1.033,0.124-2.366,0.124-2.366s1.566,5.283,1.365,5.789l0.21,2.604l1.901-2.107l2.563,1.297l-0.58,3.059l2.398-2.51
			l2.702,0.943l-0.089,3.317l2.354-2.849l2.982,0.227l0.203,3.046l1.746-2.819l3.125-0.127l0.041,1.469
			C109.602,75.864,109.598,75.869,109.596,75.874z M91.841,61.626l1.853,2.354l-0.469,1.18l-1.502-0.864
			C91.809,63.688,91.978,62.674,91.841,61.626z M94.326,66.162l0.698-1.742l1.509-0.299l0.854,1.224l-0.756,1.914L94.326,66.162z
			 M97.924,67.712l0.857-2.169l1.687-0.638l1.001,1.557l-0.886,2.13L97.924,67.712z M102.057,68.873l0.916-2.315l1.674-0.791
			l1.097,1.345l-0.825,2.029L102.057,68.873z M108.971,69.18l-2.129,0.043l0.893-2.258l0.828-0.364l1.086,0.849L108.971,69.18z
			 M85.686,49.393l3.534,1.684c0.797-7.09,5.409-10.914,6.025-11.526c-1.011,0.389-4.714,1.938-6.561,6.615
			c0,0-0.651-1.301,0.105-3.101c-0.141,0.338,1.19-2.309,1.19-2.309c0.146-0.338,0.303-0.696,0.472-1.069
			c1.694-1.977,5.049-4.851,5.049-4.851c-1.052,0.175-2.268,0.605-3.142,1.362c1.854-2.682,4.797-5.106,10.625-6.375
			c10.822-2.36,13.16-1.576,14.018-0.963c0.023,0,1.298-0.105,4.109,1.325c0.004,0.004,0.01,0.009,0.015,0.013
			c0.077,0.069,0.151,0.139,0.22,0.211c0.094,0.099,0.188,0.2,0.266,0.306c-0.146-0.052-0.297-0.099-0.453-0.144
			c-0.018-0.005-0.035-0.009-0.053-0.014c-0.141-0.039-0.285-0.076-0.434-0.109c-0.023-0.006-0.049-0.011-0.074-0.016
			c-0.144-0.031-0.289-0.061-0.439-0.087c-0.029-0.005-0.059-0.01-0.088-0.015c-0.147-0.025-0.299-0.048-0.452-0.068
			c-0.032-0.004-0.064-0.009-0.097-0.013c-0.153-0.019-0.31-0.036-0.468-0.051c-0.034-0.003-0.067-0.007-0.101-0.01
			c-0.162-0.014-0.326-0.025-0.491-0.035c-0.03-0.001-0.06-0.068-0.089-0.069c-0.182-0.01-0.366-0.084-0.553-0.084
			c-0.012,0-0.023,0-0.036,0c-1.476,0-3.031,0.183-4.396,0.492c0.309,0.022,0.633,0.087,0.963,0.125
			c0.082,0.01,0.168,0.037,0.252,0.048c0.273,0.034,0.553,0.082,0.836,0.126c0.072,0.011,0.144,0.025,0.215,0.037
			c0.355,0.058,0.717,0.125,1.082,0.199c0.043,0.009,0.086,0.02,0.129,0.028c0.322,0.066,0.645,0.138,0.97,0.215
			c0.089,0.021,0.179,0.043,0.269,0.065c0.328,0.081,0.655,0.167,0.981,0.258c0.041,0.012,0.082,0.021,0.123,0.033
			c0.369,0.105,0.735,0.218,1.096,0.336c0.068,0.022,0.134,0.046,0.201,0.069c0.297,0.1,0.589,0.205,0.877,0.312
			c0.076,0.029,0.152,0.057,0.228,0.087c0.386,0.151,0.761,0.309,1.119,0.475c0.184,0.085,0.363,0.172,0.539,0.26
			c0.07,0.037,0.141,0.074,0.209,0.11c0.145,0.076,0.282,0.153,0.418,0.231c0.073,0.042,0.147,0.084,0.217,0.126
			c0.189,0.114,0.373,0.229,0.545,0.348c0.002,0.001,0.004,0.002,0.006,0.003c0.178,0.124,0.343,0.25,0.501,0.378
			c0.192,0.157,0.373,0.316,0.532,0.479c-0.039-0.02-0.086-0.037-0.139-0.054c-0.009-0.002-0.019-0.005-0.027-0.007
			c-0.047-0.015-0.103-0.028-0.162-0.04c-0.01-0.002-0.02-0.004-0.028-0.006c-0.067-0.013-0.14-0.025-0.219-0.036
			c-0.003,0-0.007-0.001-0.009-0.001c-0.168-0.022-0.359-0.04-0.574-0.053c-0.039-0.002-0.081-0.004-0.122-0.006
			c-0.056-0.003-0.112,0.181-0.17,0.179c-0.073,0.001-0.146,0.183-0.22,0.183c-0.02,0-0.039,0-0.058,0
			c-0.257,0-0.534-0.194-0.825-0.191c-0.103,0.001-0.205-0.091-0.31-0.089c-0.131,0.003-0.265-0.041-0.399-0.037
			c-0.123,0.003-0.248-0.016-0.373-0.011c-0.123,0.005-0.246-0.002-0.369,0.004c-0.138,0.006-0.274,0.007-0.414,0.014
			c-0.141,0.007-0.28,0.012-0.422,0.021c-0.096,0.006-0.19,0.01-0.287,0.016c-0.159,0.01-0.318,0.021-0.478,0.032
			c-0.231,0.018-0.462,0.035-0.69,0.054c-0.209,0.017-0.416,0.035-0.619,0.054c-0.586,0.055-1.146,0.116-1.652,0.18
			c-0.023,0.003-0.046,0.006-0.068,0.009c-0.08,0.01-0.156,0.021-0.232,0.031c-0.066,0.009-0.131,0.018-0.194,0.027
			c-0.03,0.004-0.059,0.008-0.088,0.013c-0.085,0.012-0.17,0.025-0.251,0.037c-0.004,0.001-0.008,0.001-0.014,0.002
			c-0.282,0.044-0.534,0.089-0.747,0.134c1.594,0.5,5.136,1.485,8.245,2.926c0.856,0.396,1.681,0.827,2.422,1.292
			c0.006,0.004,0.012,0.007,0.018,0.011c0.145,0.091,0.287,0.185,0.426,0.279c0.012,0.007,0.022,0.015,0.033,0.022
			c0.143,0.098,0.281,0.196,0.416,0.297c0.002,0.001,0.004,0.003,0.008,0.004c0.273,0.205,0.529,0.416,0.764,0.632
			c0.021,0.019,0.039,0.038,0.06,0.056c0.091,0.085,0.179,0.171,0.263,0.258c0.032,0.033,0.062,0.066,0.092,0.1
			c0.07,0.074,0.137,0.149,0.199,0.225c0.032,0.039,0.063,0.077,0.094,0.116c0.058,0.072,0.113,0.145,0.166,0.218
			c0.029,0.041,0.058,0.082,0.084,0.123c0.05,0.074,0.096,0.149,0.14,0.225c0.022,0.04,0.048,0.08,0.069,0.121
			c0.045,0.082,0.084,0.164,0.121,0.248c0.016,0.035,0.033,0.069,0.048,0.104c0.049,0.119,0.092,0.238,0.126,0.359
			c0.061,0.217,0.113,0.419,0.164,0.615c0.023,0.094,0.045,0.183,0.066,0.271c0.025,0.106,0.051,0.211,0.073,0.312
			c0.019,0.085,0.036,0.168,0.054,0.25c0.022,0.112,0.043,0.224,0.062,0.331c0.008,0.045,0.017,0.092,0.023,0.136
			c0.145,0.889,0.15,1.636,0.065,2.572c-0.056,0.037-0.114,0.076-0.173,0.117c-0.038,0.026-0.077,0.053-0.118,0.081
			c-0.05,0.035-0.103,0.072-0.155,0.109c-0.02,0.014-0.037,0.028-0.058,0.042c-1.103,0.8-2.716,2.208-3.692,4.133
			c-0.002,0.004-0.004,0.008-0.006,0.013c-0.148,0.293-0.281,0.597-0.395,0.914c-0.016,0.042-0.03,0.083-0.045,0.125
			c-0.045,0.133-0.088,0.268-0.125,0.405c-0.01,0.037-0.021,0.073-0.03,0.11c-0.035,0.131-0.065,0.264-0.093,0.398
			c-0.012,0.056-0.022,0.112-0.032,0.169c-0.024,0.135-0.046,0.271-0.062,0.41c-0.006,0.043-0.011,0.086-0.016,0.129
			c-0.016,0.144-0.023,0.289-0.031,0.436c-0.002,0.052-0.003,0.105-0.005,0.158c-0.003,0.171-0.003,0.345,0.007,0.521
			c0,0,0.002,0.007,0.006,0.019c0.002,0.006,0.006,0.016,0.01,0.025c0.003,0.009,0.006,0.018,0.011,0.03
			c0.005,0.015,0.011,0.032,0.019,0.05c0.004,0.016,0.01,0.033,0.018,0.052c0.006,0.018,0.012,0.035,0.02,0.054
			c0.154,0.46,0.5,1.545,0.682,2.619c-0.422,0.479-0.877,0.899-1.357,1.267c-0.05,0.038-0.102,0.071-0.15,0.108
			c-0.188,0.138-0.377,0.271-0.57,0.393c-0.066,0.042-0.133,0.08-0.2,0.12c-0.183,0.109-0.366,0.214-0.552,0.31
			c-0.073,0.038-0.147,0.074-0.221,0.11c-0.185,0.09-0.369,0.174-0.558,0.252c-0.076,0.032-0.151,0.063-0.229,0.094
			c-0.188,0.074-0.379,0.141-0.57,0.205c-0.076,0.025-0.151,0.051-0.229,0.075c-0.197,0.061-0.395,0.113-0.593,0.163
			c-0.071,0.018-0.142,0.039-0.213,0.055c-0.222,0.051-0.444,0.094-0.666,0.132c-0.125,0.022-0.249,0.04-0.374,0.058
			c-1.018,0.146-2.023,0.171-2.963,0.098c-0.057-0.004-0.113-0.01-0.17-0.015c-0.18-0.017-0.355-0.036-0.529-0.059
			c-0.066-0.009-0.133-0.017-0.199-0.027c-0.168-0.025-0.332-0.054-0.496-0.085c-0.521-0.098-1.01-0.222-1.449-0.371l1.547,3.033
			l-1.51,1.562l-2.678,0.329l-1.555-1.011l-2.393,0.807l-1.737-1.209l-2.5,0.642l-1.627-1.493l-2.359,0.364l-1.442-1.595
			l-2.057,0.262l-3.249-2.072c-0.275-1.07-0.945-2.094-2.435-2.665c-4.029-1.537-3.786-2.481-3.99-3.184L85.686,49.393z
			 M63.918,75.354l-1.604-2.567l-1.46-2.603l-1.084-2.754l-1.091-2.705l-1.375-2.619l-0.412-2.935l-0.466-2.921l0.59-3.068
			l0.226-3.023l0.374-3.082l1.04-2.973l0.995-2.921l1.027-2.89l1.55-2.686l-0.517,3.046l-0.322,3.096l-0.08,3.065l0.619,2.931
			l0.179,3.071l0.667,2.938l1.355,2.685l0.899,2.826l0.938,2.876l1.419,2.669l2.134,2.16l1.486,2.545l1.847,2.411l1.808,2.443
			l2.503,1.854l2.383,1.907l1.958,2.291l2.475,1.748l1.175,0.983l-1.66,0.068l-1.654,0.582l-0.868,0.305l-2.388,0.484l-0.225,0.045
			l-2.567,0.848l-0.768,0.285l-0.142-0.119l-2.28-2l-2.529-1.764l-1.907-2.322l-2.009-2.193L63.918,75.354z M67.844,99.559
			c-2.841,1.282-5.737,1.633-8.426,1.26c-1.372-0.187-2.028-0.985-3.923-1.104c-2.724-1.19-5.017-3.164-6.494-5.614
			c-0.063-1.039-0.022-2.199,0.153-3.399c-0.341,0.061-0.683,0.024-0.982-0.089c-0.003-0.363,0.067-1.041,0.536-1.827
			c0,0-0.909,0.45-1.333,1.065c-0.256-0.619-0.017-1.375,0.641-1.828c0.564-0.387,1.272-0.44,1.821-0.191
			c0.364-1.088,0.849-2.166,1.486-3.18c0.5-0.635,1.78-0.201,1.451,0.504c-0.054,0.117-0.348,0.787-0.695,1.744
			c1.569,1.32,2.061,0.336,3.512,0.434c0.9,0.059,0.811,0.35,1.964,0.529c0.686,0.109,1.445-0.334,2.278-0.254
			c1.205,0.115,0.966,0.351,1.891,0.439c0.839,0.08,1.614-0.453,2.319,0.006c0.539,0.348,1.017,0.383,1.377,0.319
			c0.772-1.644,2.099-3.438,4.258-5.329l2.625,2.121c0,0-2.023,0.764-3.422,3.529l-0.409,0.229l-1.958,2.017l0.501,2.092l0.883,1.91
			l1.056,2.01l1.157,1.617L67.844,99.559z M92.147,101.21c0,0,1.407,3.658-1.546,3.279c-1.32-0.169-6.418-2.357-10.264-4.794
			c0,0,2.255,3.584,0.364,4.125l-0.396-0.254l-2.143-1.153l-1.688-1.675L74.8,99.07l-1.7-1.658l-1.167-1.967l-1.384-1.868
			l-0.086-2.043l1.496-1.72l2.491-1.078l2.373-1.244l2.605-0.779l2.603-0.797l2.612-0.797l2.641-0.172l2.797-0.377l2.685,0.294
			l2.66,0.312l2.309,0.567l2.153,1.064l2.167,0.963l1.989,1.33l2.019,1.385l1.903,1.433l1.673,1.767l1.104,2.149l1.23,2.054
			l0.389,2.11h-0.035l-0.469,0.505C107.957,102.678,100.732,105.275,92.147,101.21z M121.779,100.314
			c0.859,0.273,0.813-0.021,1.93,0.338c0.771,0.248,1.109,0.916,1.775,1.084c1.117,0.281,1.242,0,2.055,0.289
			c1.316,0.47,1.049,1.498,3.316,0.961c0.363-0.95,0.578-1.639,0.612-1.76c0.214-0.728,1.611-0.611,1.599,0.121
			c-0.158,1.11-0.491,2.219-0.938,3.291c0.643-0.006,1.212,0.307,1.426,0.854c0.25,0.638-0.07,1.377-0.718,1.808
			c0.06-0.685-0.405-1.419-0.405-1.419c-0.146,0.854-0.556,1.46-0.811,1.772c-0.342-0.012-0.656-0.117-0.906-0.299
			c-0.686,1.1-1.457,2.107-2.234,2.976c-2.977,1.544-6.312,2.367-9.479,2.354c-1.706-0.619-2.826-0.183-4.136-0.543
			c-2.564-0.701-4.803-2.102-6.348-4.276l-1.129-1.532l1.961-0.939l2.529-0.884l2.322-1.473l1.547-2.042l0.029-2.025l-0.449-1.47
			c0.41-2.465-0.614-3.675-0.614-3.675L118.439,93c0.537,2.445,0.425,4.486-0.055,6.188c0.266,0.194,0.699,0.344,1.404,0.25
			C120.712,99.312,121.005,100.062,121.779,100.314z M157.318,58.028l-1.129,2.871l-1.187,2.884l-1.177,2.947l-1.824,2.781
			l-1.911,2.679l-1.626,2.854l-2.438,2.332l-2.391,2.362l-3.008,1.723l-2.82,1.904l-2.845,1.955L131.898,87l-3.164,1.592
			l-3.33,0.883l-3.252,1.121l-3.248,1.266l-3.4,0.556l-3.275,0.831l-1.435-1.645l-0.735-0.69l-1.013-0.949l-1.198-0.995
			l-0.646-0.537l-1.893-1.257l1.471-0.347l3.34-0.562l3.273-1.218l3.366-0.733l3.441-0.641l3.253-1.414l3.264-1.363l3.045-1.621
			l3.336-1.047l3.078-1.748l2.803-2.109l2.74-2.086l3.033-1.787l2.615-2.27l2.293-2.565l2.57-2.277l2.067-2.66l1.878-2.781
			l1.678-2.808L157.318,58.028z"/>
	</g>
	<path fill="#F37321" d="M111.857,100.505l0.469-0.505h0.061l-0.006,0.023l0.039-0.004l-0.051-0.002l-0.396-2.136l-1.23-2.05
		l-1.104-2.146l-1.673-1.767l-1.903-1.431l-2.019-1.385l-1.989-1.33l-2.167-0.963l-2.153-1.065l-2.309-0.567l-2.66-0.312
		l-2.685-0.293l-2.797,0.376l-2.641,0.172l-2.612,0.797l-2.603,0.797l-2.605,0.779l-2.373,1.243l-2.491,1.078l-1.496,1.721
		l0.086,2.043l1.384,1.869l1.167,1.966l1.7,1.657l1.674,1.668l1.688,1.676l2.143,1.154l0.396,0.254
		c1.891-0.541-0.364-4.125-0.364-4.125c3.846,2.436,8.943,4.623,10.264,4.793c2.953,0.379,1.546-3.314,1.546-3.314
		C100.732,105.241,107.957,102.678,111.857,100.505z M88.537,87.549l-0.434,1.098l-0.683,0.988l0.006,0.07
		c1.03-0.006,2.073,0.012,3.065,0.057l0.261-1.096l0.427-0.734l1.158-0.115l1.311,0.259l-0.262,0.774l-0.771,0.887l0.013,0.191
		c0.513,0.064,0.998,0.135,1.436,0.225c0.529,0.107,1.094,0.267,1.677,0.459l0.339-0.883l0.038-1.179l1.174,0.229l1.132,0.549
		l-0.108,0.523l-0.329,0.912l-0.322,0.562c0.81,0.332,1.62,0.702,2.401,1.082l0.006-0.267l0.62-0.75l0.201-1.314l1.129,0.465
		l1.065,0.611l-0.332,0.818l-0.169,0.617l-0.484,0.439l-0.047,0.387c2.084,1.107,3.606,2.057,3.606,2.057s-1.572-0.645-3.685-1.429
		l-0.117,0.847L101.374,96h-1.113l-1.378-0.396l0.348-1.086l0.383-0.967l0.163-0.269c-0.791-0.274-1.604-0.566-2.405-0.821
		l-0.013,0.122l-0.749,0.924l-0.192,1.476L95.05,95.18l-1.295-0.293l0.575-1.508l0.293-0.916l0.488-0.689
		c-0.51-0.133-0.998-0.254-1.438-0.344c-0.335-0.07-0.737-0.134-1.19-0.205l-0.111,0.256l-0.545,1.045l-0.562,1.877l-1.18-0.16
		l-1.215-0.574l0.494-1.301l0.562-0.625l0.089-0.817c-0.839-0.089-1.729-0.172-2.628-0.249l-0.606,0.9l-0.312,1.601l-1.228-0.241
		l-1.087-0.799l0.287-0.781l0.6-0.775l0.003-0.096c-3.055-0.233-5.648-0.377-5.648-0.377s2.539-0.24,5.665-0.351l0.003-0.127
		l0.618-0.75l0.147-1.25l1.32,0.036L88.537,87.549z"/>
	<path d="M85.826,87.629l-0.147,1.25l-0.618,0.75l-0.003,0.127c-3.126,0.11-5.665,0.352-5.665,0.352s2.593,0.144,5.648,0.375
		l-0.003,0.097l-0.6,0.774l-0.287,0.782l1.087,0.798l1.228,0.242l0.312-1.601l0.606-0.9c0.899,0.077,1.789,0.16,2.628,0.249
		l-0.089,0.817l-0.562,0.625l-0.494,1.301l1.215,0.574l1.18,0.159l0.562-1.875l0.545-1.047l0.111-0.254
		c0.453,0.069,0.855,0.133,1.19,0.205c0.44,0.088,0.928,0.209,1.438,0.344l-0.488,0.688l-0.293,0.916l-0.575,1.507l1.295,0.292
		l1.368-0.198l0.192-1.477l0.749-0.929l0.013-0.13c0.801,0.255,1.614,0.529,2.405,0.804l-0.163,0.233l-0.383,0.896l-0.348,1.228
		L100.261,96h1.113l0.485-1.109l0.117-0.705c2.111,0.785,3.685,1.356,3.685,1.356s-1.522-0.985-3.606-2.092l0.047-0.404l0.484-0.448
		l0.169-0.623l0.332-0.82l-1.065-0.612l-1.129-0.467l-0.201,1.313l-0.62,0.75l-0.006,0.266c-0.781-0.379-1.591-0.75-2.401-1.081
		l0.322-0.562l0.329-0.912l0.108-0.523l-1.132-0.549l-1.174-0.229l-0.038,1.179l-0.339,0.883c-0.583-0.192-1.147-0.353-1.677-0.459
		c-0.438-0.09-0.922-0.16-1.436-0.225l-0.013-0.191l0.771-0.887l0.262-0.774l-1.311-0.259l-1.158,0.115l-0.427,0.734l-0.261,1.096
		c-0.992-0.044-2.035-0.062-3.065-0.057l-0.006-0.07l0.683-0.988l0.434-1.098l-1.391,0.116L85.826,87.629z"/>
</g>
</svg>
